<?xml version="1.0" encoding="UTF-8"?>
<svg id="Layer_1" xmlns="http://www.w3.org/2000/svg" version="1.1" viewBox="0 0 1376 768">
  <!-- Generator: Adobe Illustrator 30.1.0, SVG Export Plug-In . SVG Version: 2.1.1 Build 136)  -->
  <defs>
    <style>
      .st0 {
        fill: #b76e79;
      }
    </style>
  </defs>
  <path class="st0" d="M172.12,512.55c1.27-9.66-8.47-19.94-10.04-26.93-1.11-4.93,1.08-10.81,1.96-17.29,20.82,18.6,44.49,31.21,71.56,37.81,55.89,13.63,123.05,9.43,176.24-12.75,4.43-1.85,7.9-4.5,9.68-9.16l4.37-11.44c.34-.89,2.22-2.45,3.11-2.49,1.07-.05,2.71,1.92,2.92,3.03l3.76,19.7c3.55,18.62,26.46,16.99,40.54,12.53,11.6-3.67,22.45-8.48,33.49-13.86l-34.49-11.4-7.63,1.95c-9.4-1.62-17.58-2.49-27.33-2.48,1.44-4.51,2.84-11.72,6.83-14.73,8.59-6.48,19.82-5.42,29.53-2,28.18,9.91,56.99,21.48,87.7,19.53-.91,5.91-3.08,11.49-6.08,16.87-10.32-.84-20.46-2.49-30.47,1.51-6.34,10.54-9.53,24.4-7.98,37.15s11.45,21.31,23.17,24.52c16.16,4.42,32.32,1.94,47.82-4.09,19.79-7.7,37.94-17.71,53.07-33.33-1.17-1.52-3.35-2.73-5.18-3.2l-41.13-10.55,3.43-16.87,21.4-4.52c4.62-.98,17.35-5.4,17.02-11.28-.34-6.12-14.28-5.86-19.01-5.75s-12.05.2-14.83-4.9c-6.12-11.21-1.16-26.8,10.32-32.55,4.3-2.15,9.76.41,13.02,3.12,13.64,11.3,19.94,38.15,11.63,54.58-1.83,3.61-5.7,6.05-9.29,9.19l10.02,3.03c3.95,1.2,8.15,4.32,9.42,8.49,6.18,20.28-15.61,36.26-30.55,45.81-14.07,9-28.67,15.96-45,20.02-15.17,3.77-31.02,2.12-44.31-5.73-24.17-14.28-20.34-47.7-9.95-71.1-22.71,6.94-57.86,30.78-79.96,18.69-5.28-2.89-8.12-8.67-9.32-14.39l-4.3-20.46c-4.53,5.99-3.86,13.11-8.88,17.4-5.82,4.98-13.28,7.9-20.89,10.43-53.01,17.64-109.8,20.94-164.19,8.03-20.14-4.78-37.87-12.43-55.04-24.69,2.52,13.9-.71,26.28-9.77,36.23-11.94,13.11-25.86,23.8-41.55,32.24-7.38,3.97-15.78,6.37-24.04,5.27-26.71-3.56-27.08-53.65-12.37-72.64.66,6.65-2.7,12.11-3.98,18.13-3.11,14.67-2.61,35.63,16.28,38.35,6.4.92,12.85-.41,18.82-3.12,16.04-7.28,40.26-25.07,50.46-39.9h-.01ZM626.27,456.15c-3.09-4.79-7.62-5.65-12.2-4.12-1.19.4-2.69,4.13-1.46,4.57,4.38.36,9.4.13,13.66-.44h0Z"/>
  <path class="st0" d="M888.99,554.64l-6.71,7.47c-10.61,11.8-28.73,16.41-43.03,8.31-16.5-9.35-40.8-38.16-58.58-50.69,5.04,8.49,10.98,15.17,13.94,24.38,2.74,8.54,1.8,19.8-4.49,26.33-9.86,10.23-24.23,11.23-37.64,6.8l-3.58,12.47c-.52,1.81-3.07,3.03-4.92,2.23-11.23-4.83-16.93-14.49-18.09-27.34l-7.92,7.16c-8.83,7.98-22.15,10.68-32.7,4.63-14.6-8.37-13.74-38.04-14.38-53.23-1.07-25.62-3.24-50.46-5.79-75.84l-13.86,4.35c.37-3.31.89-6.69,1.58-9.07l10.46-4.44c-2.9-11.36-1.91-16.16,4.69-27.35l4.72,24.39,43.34-15.47,23.04-8.02c.44,3.19-.24,7.22-2.17,9.87l-62.99,22.43,1.7,20.23,4.75,77.9c.43,7.08,3.83,14.92,9.79,18.15,12.27,6.63,26.22,1.29,33.99-9.4,3.23-4.44,6.31-8.2,10.3-12.43,2.97,10.83,8.23,17.45,17.66,21.13,10.04,3.91,21.37,5.2,31.42.69,1.76-.79,4.14-2.57,4.58-3.97s-.63-4.62-1.67-6.06c-13.08-18.27-27.48-34.53-42.76-51.04-8.47-9.15-17.63-16.96-24.84-27.38-4.62-6.67-2.7-18.76.28-25.78,4.09-9.63,33.58-21.5,43.37-24.88l79.55-27.52c6.19-2.14,27.25-8.18,31.61-4.1,7.5,7.01-6.31,25.38-9.25,33.02l48.5-16.69c.13,3.25-.26,6.54-1.11,9.45l-50.51,17.46c-4.2,1.45-7.07,2.83-9.49,6.64l-13.59,21.5c-1.83-8.71,4.54-14.15,6.64-22.25l-28.74,9.92-52.51,18.3c.18-3.3.59-5.87,1.44-9.58l88.86-30.95c5.68-5.84,9.77-12.49,14.02-20.39-2.5-.81-4.84-1.09-7.1-.51-28.31,7.33-55.56,15.54-82.72,26.27-18.32,7.23-35.94,14.05-53.65,24.21,28.38,20.62,54.67,39.87,78.86,63.16l30.08,28.96c13.61,13.1,38.51,14.75,51.02-2.94,2.5-3.54,6-6.76,9.98-8.7,1.07,7.26-.17,12.35,5.11,17.27,7.12,6.65,24.98,4.41,26.96-6.83,3.05-17.31-14.93-35.53-1.82-54.62,8.75,18.45,5.78,34.38,12.68,53.23,1.64,4.47,5.71,8.35,9.08,9.69,4.85,1.92,10.34.58,14.56-1.5,3.77-1.86,5.4-4.69,3.8-8.77-5.72-14.53-7.28-10.84-3.11-30.19,5.51,5,7.26,11.55,8.94,18.47,2.5,10.28,2.18,21.23-4.01,30.07-5.4,7.72-15.89,11.58-24.31,7.38-6.74-3.36-9.41-10.28-12.24-17.58-2.36,6.12-4.67,12.4-10.02,16.58-7.93,6.19-19.55,6.08-25.69-2.29-2.42-3.29-2.94-6.76-5.33-12.72l.02.02Z"/>
  <path class="st0" d="M325.7,335.82c-5.38,3.21-13.97,1.7-17.82-2.91-3.43-4.1-4.35-9.23-6.2-14.59-2.02,2.15-4.42,4.7-6.57,7.38-10.6,13.25-28.26,16.99-43.37,8.04-9.28-5.5-16.86-13.46-24.72-21.04l-17.83-17.21c-3.88-3.75-7.77-6.7-12.92-9.5l10.18,15.46c6.39,9.71,7.37,23.7-.53,33-6.25,7.36-17.04,9.69-26.19,8.44l-11.34-1.55-2.01,9.81c-.23,1.1-1.81,3.23-2.86,3.6s-3.7-.04-4.67-.62c-12.24-7.31-13.17-11.32-15.59-26.09-8.81,12.79-28.2,21.16-41.04,10.36-4.8-4.04-7.98-10.55-9.25-16.9-2.94-14.76-3.05-29.18-3.73-44.37-1.08-24.16-3.29-47.45-6.15-71.38-.87-7.26-5.62-8.92,4.38-24.92,4.67,16.79,6.48,32.57,7.37,49.28l3.46,65c.72,13.5,3.05,32.07,19.07,32.29,11.94.16,21.26-5.99,27.36-15.98,1.86-3.04,4.23-5.7,7.78-6.91,6.25,29.56,49.59,24.02,51.91,16.83,1.59-4.94-17.72-27.06-22.21-31.92l-43.72-47.24c-2.93-3.16-4.42-6.61-4.32-11.01.13-5.7-.63-12.11,2.51-17.01,3.82-5.96,10.15-10.12,16.71-13.16,24.33-11.29,49.14-19.73,74.65-28.4,15.57-5.29,30.18-10.34,46.21-13.93,3.6-.8,10.09-1.89,12.43,1.3,7.18,9.8-14.52,37.71-20.09,46.18l-14.04,21.36c-2.35-18.69,24.51-38.02,27.62-53.72-19.04,3.65-35.47,9.53-52.86,15.22-17.35,5.68-33.74,11.62-50.68,18.35-11.97,4.76-23.73,9.17-34.92,16.64,37.66,25.72,64.03,47.63,95.15,78.7,4.41,4.41,8.96,8.32,13.65,12.21,15.27,12.63,36.69,9.26,48.08-6.76,1.95-2.74,4.61-4.76,7.85-6.06.78,3.86.84,7.15,1.87,10.46,2.83,9.11,14.87,12.18,22.33,6.67,2.77-2.05,3.56-6.52,3.31-10.2l-7.13-108.82c-.51-7.77,1.99-14.71,6.4-21.15,1.41,6.71,3.01,12.65,3.39,19.07l4.25,71.89,2.32,31.36c.53,7.15,1.26,15.72,7.97,20.1-10.63-17.34-10.1-39.11,7.78-51.87,17.18-12.25,40.21-8.69,53.06,10.23l-16.51-2.66c-13.1-2.11-26.04.59-37.93,5.88-3.75,1.67-5.47,5.8-4.66,9.73,3.14,15.17,17.28,33.1,34.53,28.31,14.39-3.99,26.23-11.37,38.54-21.09-1.26,6.14-3.31,13.13-8.08,17.62-12.81,12.05-28.95,19.3-46.14,22.93-9.19,1.94-19.11.63-26.6-5.19-4.59-3.57-6.15-9.95-8.47-15.08-2.91,5.71-5.15,11.98-11.02,15.49l.05.05Z"/>
  <path class="st0" d="M779.87,341.55l-1.77,9.21c-.26,1.33-1.76,3.42-2.76,3.98s-3.72.19-4.94-.35c-10.61-4.7-14.78-15.02-15.68-26.42-7.33,9.06-16.19,15.24-27.17,15.36-16.68.18-23.58-16.33-24.49-30.03l-2.34-35.32-49.08,17.37c-.1-3.77.44-6.61,1.78-9.54l46.75-16.38c-1.35-22.46-2.81-44.96-6.65-67.21-.81-4.69-1.62-8.05.27-12.42,1.42-3.28,2.06-6.13,5.28-9.25,4.05,15.75,5.65,30.79,6.67,46.69l2.5,39.05,39.19-13.54c-.17,3.76-.45,6.19-1.01,9.13l-37.63,13.27,1.48,24.21c.77,12.55,4.49,29.23,20.24,28.25,10.04-.62,18.37-5.36,23.78-13.62,2.34-3.57,4.73-6.41,8.77-10.12,3.82,12.66,11.48,19.88,23.56,22.23,9.13,1.77,23.84,1.97,29.3-5,2.79-3.56-19.65-28.52-23.55-32.76l-39.7-43.23c-4.84-5.27-8.6-8.91-7.48-17.21.66-4.91.35-11.65,4.05-16.02,3.95-4.67,9.44-8.15,15.35-10.69,38.85-16.73,78.28-30.58,119.05-41.98,4.6-1.29,9.97-1.35,14.13-.24,2.61,6.65,1.08,14.21-2.3,20.25-11.03,19.73-20.62,29.83-31.96,49.21-.53-8.21,2.76-15.53,7.32-21.88l18.87-26.27c1.38-1.92,2.11-4.63.72-6.61-33.5,8.72-65.66,19.2-97.5,31.83-13.83,5.49-27.08,10.47-40,18.4,34.93,23.6,65.58,49.34,94.7,78.08,20.04,19.78,41.24,34.84,69.7,20.24.36-5.68.52-10.68.06-16.14l-6.28-74.11-3.06-41.54c-.21-2.84-2.15-7.19-2.66-9.95,1.89-5.26,3.39-8.95,6.38-14.59l10.57,26.72c1.02,2.57,1.1,5.3,1.02,8.97l-6.23-5.56,6.04,78.51,1.81,28.72c.8,12.69-.49,31.76-14.09,37.18-22.7,9.06-45.44-1.72-62.04-17.55l-31.25-29.8c-3.22-3.07-7.19-5.57-10.87-7.93,4.89,7.25,10.27,13.64,13.92,21.78,3.8,8.48,2.53,19.95-3.13,27.23-7.97,10.26-25.01,10.08-37.62,7.38h-.02Z"/>
  <path class="st0" d="M1106.86,616.7c-29.73,11.36-57.27,19.27-88.99,9.03-31.25-10.09-40.12-42.99-34.31-72.43,4.71-23.87,16.1-44.41,34.99-60.34-8.74-7.82-17.81-15.03-31.01-10.45.95-5.1,3.1-11.34,6.49-15.93,22.56-12.35,49.28-11.49,71.83,1.75l-4.25,14.6-18.64,8.73c11.53,10.25,36.59,5.55,46.72-6.3,3.14-3.67,9.26-13.31,11.26-12.3,3.78,1.91,2.82,16.4,21.82,20.87,19.03,3.8,41.47-4.4,58.91-13.6l-35.26-11.93c-3.43,1.13-8.12,2.62-11.72,1.48-8.07-1.21-14.86-1.65-23.14-1.92l6.39-14.48c16.33-9.37,29.08-2.77,45.92,3.24,22.66,8.09,47.05,15.78,72.2,14.41-1.56,5.77-3.57,11.22-6.18,16.65-47.2-7.02-66.64,29.87-110.58,22.25-3.02,2.31-2.3,15.86-7.32,14.66-8.61-2.05-15.34-8.29-17.46-16.66l-2.82-11.18c-11.37,15.58-31.1,21.37-48.15,13.41-5.25-2.45-9.55-6.54-14.99-9.44-12.66,7.9-23,17.96-30.63,30.7-14.61,24.39-14.45,58.17,12.95,73.35,10.02,5.55,21,8,32.6,8.57,13.27.65,26.4.46,39.58-.85l37.91-3.76c-4.64,3.83-8.94,5.9-14.12,7.88h0ZM1042.81,476.81c-8.54-2.45-14.07-2.66-21.92-1.71l11.44,8.34c4.03-2.18,7.41-4.17,10.48-6.63Z"/>
  <path class="st0" d="M657.46,318.65c.1-8.58,2.84-16.33,8.59-21.9,4.34-4.19,10.97-3.4,15.81.16,15.96,11.75,21.78,41.08,6.15,57.97-14.12,15.27-32.37,26.91-51.95,33.89-15.78,5.62-30.71-2.3-35.62-17.73-3.59-11.28-1.72-22.3.43-33.5-4.2-7.17-8.08-15.34-8.54-24.33l-2.4-46.77-2.11-22.72-46.88,16.32c1.66,19.4,3.45,38.53,2.45,58.02-.65,12.58-6.43,21.9-16.89,28.34-22.61,13.94-80.04,37.56-93.69,1.27-5.72-15.21-4.08-33.97,6.86-46.59-1.55,10.76-5.13,19.06-3.88,28.71,3.25,25.01,36.77,23.6,54.51,18.12,16.97-5.25,32.33-12.33,46.14-24.11l-4-60.72-19.26,6.29c-.23-2.32.21-6.94,1.77-8.64l16.91-6.3-4.09-52.29c-.18-2.33-2.26-6.43-2.73-8.78l6.48-14.98c4.69,12.72,8.29,22.82,11.24,36.21l-6.14-5.04,3.79,41.94,46.88-16.77c-1.13-13.3-3.34-25.42-5.51-38.4,1-5.22,3.44-11.03,6.93-16.15,3.63,17.6,5.54,33.59,7.38,51.13l11.87-3.51-.67,9.05-10.35,3.46,2.37,46.91c.53,10.47.72,20.5,4.04,30.32,4.35,12.86,23.35,12.07,32.82,4.45-.13-5.93-8.86-17.06-7.84-20.6l4.2-14.65c9.49,12.02,11.98,27.45,7.77,41.32-2.42,7.97-8.24,13.25-16.13,14.81-6.99,1.39-13.17.76-20.3-3.15-1.52,6.5-2.28,13.45-.96,20.08,1.59,7.95,7.5,13.65,15.59,14.55,7.5.83,15.23.08,22.43-2.79,18.11-7.22,34.13-18.2,47.85-31.94,1.31-1.32,2.58-3.98,2.05-5.24s-3.25-3.65-4.74-3.66l-16.73-.15c-6.73-.06-12.03-4.53-11.94-11.88l.04-.03ZM680,314.57c-1.38-2.73-4.05-4.76-6.25-5.11-3.54-.57-7.26.4-7.24,4.75,4.22.91,9.12,1,13.5.36h-.01Z"/>
  <path class="st0" d="M944.72,324.95c2.53,2.22,7.06,1.07,8.71-1.82,1.86-3.27,3.34-6.91,4.3-10.52l9.01-34.09c.92-3.49,7.12-15.29,12.25-15.58,5.95-.34,2.46,20.06,1.65,24.28-1.89,9.77-5.82,30.23,4.94,35.8,7.86,4.08,18.8,2.8,25.15-3.58,13.07-13.13,5.59-39.7,1.09-55.55-.45-5.12,2.72-11.58,5.38-16.76,5.5,12.82,8.47,25.63,10.15,39.17,1.43,11.54,4.34,31.13,16.88,33.78,5.78,1.22,12.63.68,16.24-5.13-5.09-17.68-9.47-19.61-13.25-39.35-3.42-17.81-7.58-13.1,1.34-31.12l10.51,16.44c1.4,2.2,2.46,5.99,2.99,8.22l-6.79-2.02c4.36,20.64,19.41,37.82,8.59,58.29-3.31,6.25-9.11,10.47-14.97,11.09-14.36,1.51-21.7-9.52-26.42-22.53-2.08,6.01-3.96,11.58-7.65,16.56-7.76,10.46-22.42,14.09-33.49,6.79-16.34-10.78-9.21-38.15-7.06-54.35-2.04,2.75-4.21,6.23-5,9.69l-5.98,26.11c-1.28,5.57-2.99,11.42-6.1,15.94-3.29,4.78-8.91,5.52-13.4,2.19-14.72-10.89-12.77-43.75-4.42-57.53.44,15.21-7.09,34.66,5.35,45.6v-.02Z"/>
  <path class="st0" d="M1078.36,350.74c-5.99-15.54-3.81-32.92,5.23-46.75,6.42.79-5.55,12.11-1.42,30.55,5.71,25.48,40.29,21.21,59.02,15.29,9.13-2.88,45.06-17.41,48.15-26.73l-7.9-111.87c-.45-6.42-1.68-11.26-3.61-17.36.26-4.2,3.3-9.37,6.49-14.28,4.74,11.67,7.96,22.62,11.22,35.12-2.89-1.69-3.42-2.37-6.13-4.6l5.98,72.98c1.14,13.88,1.46,27.16-.11,40.64-1.17,10.06-6.4,17.18-14.88,22.63-17.25,11.07-36.63,18.5-56.94,22.76-17.31,3.63-37.98.14-45.12-18.38h.02Z"/>
  <path class="st0" d="M1277.23,300.74l3.45-15.84c11.1,13.15,14.31,36.31,3.25,49.92-5.39,6.64-16.01,9.36-24.13,7.1-21.14-5.89-20.16-37.95-21.09-55.72l-1.71-32.73-29.9,10.06c-.19-3.2.35-6.35,1.47-8.96l28.15-10.32-6.29-50.12,3.77-11.56c.2-.66,2.99-2.32,3.2-1.41,4.61,19.88,6.82,39.66,8.04,60.42l58.51-20.68c.8,3.83.19,7.1-1.89,9.56l-56.17,19.65,1.11,33.84c.32,9.84,1.6,19.37,3.52,28.84,2.26,5.86,5.05,11.33,11.39,12.9,8.04,2,16.09-.16,22.88-5.4-.47-5.8-8.34-15.98-7.56-19.56h0Z"/>
  <path class="st0" d="M1231.03,574.62c-13.83,9.45-39.16,19.99-55.84,22.21l80.53-56.35c5.12-3.58,30.89-24.07,29.51-29.53s-15.92-4.83-20.66-4.53c-7.34.47-13.42-3.12-14.66-10.73-1.67-10.25,2.96-21.42,12.37-26.84,3.54-2.04,9.06.11,12.15,2.3,7.91,5.61,11.9,13.76,14.54,22.83,3.55,12.23,2.02,24.66-5.59,35.25-5.59,7.78-12.3,14.78-19.81,20.92-10.67,8.72-21.14,16.68-32.53,24.47h-.01ZM1273.16,490.24c-1.77-3.74-4.57-5.45-7.28-5.7-3.61-.33-6.51.05-7.84,5.24l15.11.46h.01Z"/>
  <path class="st0" d="M351.83,464.83l-79.86,27.68c.1-3.27.69-5.95,1.62-9.68l211-73.62,72.5-25.33c.23,3.22-.35,6.9-1.53,9.28l-14.75,5.29-39.56,13.82-149.43,52.56h.01Z"/>
  <path class="st0" d="M464.88,390.57c5.35-4.34,10.79-5.7,16.62-7.73,30.72-10.73,67.53-31.85,91.72-54.12-.11-3.04-1.17-6.11-2.32-8.92l-8.83-21.55c-1.09-2.67-2.49-6.15-1.71-8.94l3.07-11.01,15.79,20.26c-1.38.61-2.51.92-4.65,1.48l3.23,7.99c6.05,14.99,2.08,30.91-10.21,41.43-16.18,13.85-33.38,25.71-52.66,35.06-11.96,5.8-34.95,6.45-50.03,6.04h-.02Z"/>
  <path class="st0" d="M1159.47,387.78c-14.86,4.02-29.69,5.9-46,4.03,8.74-6.11,18.64-7.49,28.27-11.54,28.25-11.88,54.14-27.63,77.56-47.1,4.03-3.35,3.32-6.13,1.56-10.31l-11.92-28.29c.78-4.17,1.97-8.61,3.66-14.16,6.47,6.81,10.84,12.82,15.34,20.59l-5.01-.38c2.28,5.91,5.17,11.47,6.51,17.71,2.33,10.84-2.15,22.01-10.18,29.74-13,12.51-27.71,22.27-43.09,31.74-5.05,3.11-10.46,6.28-16.71,7.97h0Z"/>
  <path class="st0" d="M1108.88,311.11c.78,9.99-.68,19.7-5.43,28.49l-7.58-84.97-2.81-46.03c-.64-10.47-2.08-20.2-3.59-30.52-.41-4.51,3.39-10.05,6.07-14.33l6.56,18.15c2.04,5.66,3.42,10.77,4.17,17l-6.15-4.13,3.25,45.52,5.51,70.83h0Z"/>
  <path class="st0" d="M987.47,444.07c-.34-2.88.13-5.84.86-9.37l65.04-22.78,41.52-14.45c-.06,3.71-.46,6.25-1.45,9.85l-105.96,36.75h-.01Z"/>
  <path class="st0" d="M1100.87,430.19l-40.14,13.9c-.05-3.39.5-7.01,1.99-9.7l106.54-36.67c0,3.74-.38,6.17-1.2,9.11l-67.19,23.36h0Z"/>
  <path class="st0" d="M1130.41,439.98l1.38-8.9,19.65-6.95,90.38-31.54c.67,2.73.43,6.34-.88,9.14l-110.53,38.25Z"/>
  <path class="st0" d="M102.2,478.6c9.62,2.97,10.82-13.16,14.07-17.11,3.29,9.99,1.33,20.67-4.11,29.17-3.15,4.93-9.57,8.35-14.95,5.9-17.91-8.17-9.92-35.99-4.77-50.19l11.33-31.21c7.31,10.27-20.72,57.55-1.56,63.45h-.01Z"/>
  <polygon class="st0" points="985.43 412.86 876.62 451 878.93 441.4 986.86 404.06 985.43 412.86"/>
  <path class="st0" d="M97.7,612.4c-.98-2.44-.42-5.73.37-9.01l47.51-16.4,61.32-21.26c0,2.9-.38,5.96-1.15,8.85l-108.05,37.82h0Z"/>
  <path class="st0" d="M141.21,582.02l-44.15,15.39c.19-3.32.67-5.92,1.69-9.25l107.96-37.28c.38,2.84-.02,5.64-1.06,8.56l-64.44,22.58Z"/>
  <path class="st0" d="M158.11,384.57c-19.59,10.36-29.54,10.02-52.25,10.77,5.4-3.63,10.4-5.04,16.11-6.82,11.68-3.64,23.03-7.45,34.19-12.36,15.28-6.72,6.46-14.75,23.02-22.55,2.68-1.26,6.2-1.96,9.04-.72,6.43,2.82,3.63,13.69,1.21,19.12-1.83,4.08-6.8,4.58-10.26,2.46l-9.09-5.56c-1.94,6.84-5.18,12.07-11.98,15.67h0Z"/>
  <path class="st0" d="M731.94,367.08c-6.08,23.2-40.68,25.66-62.2,25.22,12.98-9.7,51.7-11.99,58.6-28.01,4.45-10.33,19.06-19.66,24.03-10.63,3.05,5.54.73,16.78-5.41,19.55-5.33,2.4-10.5-2.9-15.01-6.14h-.01Z"/>
  <path class="st0" d="M431.78,192.38c.24-3.52.85-6.21,1.93-9.18l101.49-34.91c.26,2.61-.51,6.59-1.93,9.04l-101.49,35.05h0Z"/>
  <path class="st0" d="M258.38,590.95c18.63-7.84,40.21-8.86,61.56-13.4,10.97-2.33,20.85-8.4,26.57-18.1-3.34-2.01-6.9-3.74-8.88-6.29-2.44-3.16.91-9.6,4.75-9.02,6.3.95,9.89,7.05,11.8,12.35l2.88,8,4.47-21.94c.22-1.05,2.34-3.07,3.29-3.56,2.81-1.47,8.56,3.04,8.56,6.58,0,1.83-1.81,5.73-3.03,5.34l-4.42-2.39c-1.06-.57-3.47,2.35-3.62,3.59l-2.18,18.65c-.4,3.45-1.21,6.27-4.84,8l-5.5-16.49c-3.67,5.96-8.01,10.77-14.63,13.72-22.89,10.21-51.43,12.38-76.81,14.99l.03-.03Z"/>
  <path class="st0" d="M602.5,191.4c-1.1-2.55-.08-6.16,1.32-8.96l53.48-18.45,44.31-15.56c.47,3.31-.09,6.24-1.73,9.22l-97.38,33.76h0Z"/>
  <path class="st0" d="M347.12,220.96c3.35-3.29,7.15-5.08,11.19-7.05,17.49-8.54,37.19-22.18,46.99-39l-7.47-5.18c-2.86-1.99-2.1-9.29,2.09-10.25,7.07-1.62,13.25,12.88,15.13,19.87,1.57-5.82,1.43-22.29,8.31-25.02,2.43-.97,7.54,4.03,7.21,7.23-.14,1.34-1.83,4.19-2.34,4.45-2.57-1.54-4.2-2.46-6.73-3.19-3.48,9.47-1.67,25.07-7.08,30.47-3.15,3.15-3.53-13.67-6.96-16.34-7.34,24.97-36.1,39.57-60.37,44h.03Z"/>
  <path class="st0" d="M289.65,189.21c-.02-3.46.59-6.36,1.82-9.17l91.78-32.74c.27,3.13-.36,6.12-1.51,9.35l-92.09,32.56Z"/>
  <path class="st0" d="M696.89,602.29c-4.25,16.68-47.9,27.01-62.02,24.69,3.2-3.41,7.08-4.31,11.06-5.43,11.82-3.32,23.44-6.55,34.64-11.32,6.36-2.71,11.23-6.97,13.54-13.45,2.03-5.72,11.73-11.13,14.97-11.5,2.49-.28,7.6,1.3,8.41,4.22,1.61,5.82-.27,15.6-5.49,18.72-5.52,2.35-11.37-3.33-15.11-5.94h0Z"/>
  <path class="st0" d="M483.67,312.83c-6.96,1.42-13.76.02-20.56-1.64,7.59-6.29,22.4-3.15,30.79-12.45l-11.85-1.03c-3.9-.34-7.09-3.14-6.4-7.52,1.86-11.88,10.68-28.97,24.06-32.45-1.97,8.55-3.33,16.14-11.75,18.05-2.79.63-5.79,4.52-3.6,6.48l14.92,1.18c7.1.56,1.13,25.97-15.62,29.39h0Z"/>
  <polygon class="st0" points="885.71 622.91 869.15 612.62 877.58 595.43 895.49 604.99 903.49 589.75 920.25 600 912.2 618.39 894.24 607.87 885.71 622.91"/>
  <path class="st0" d="M1139.13,296.93c-7.85,2.95-15.95,1.03-23.75-1.01,9.73-5.86,22.7-3.55,30.62-11.98l-11.27-1.11c-17.61-1.73,4.95-39.94,17.47-39.49-4.23,20.91-12.85,15.32-16.79,22.3-.35.62,1.85,2.07,2.65,2.07l10.49.04c3.14.01,6.68,1.14,6.38,5.18-.68,9.3-6.02,20.31-15.79,23.99h0Z"/>
  <path class="st0" d="M863.21,494.24l27.41-13.17c-8.71-3.53-16.09-1.25-25.41-1.13,2.15-5.38,5.33-11.28,9.17-16.02,10.59-2.06,21.42-1.28,31.84,3.13-9.25,21.29-18.58,31.88-43,27.19h-.01Z"/>
  <path class="st0" d="M902.8,232.4l-86.52,30.13c.1-3.34.84-6.35,2.38-9.52l85.63-30.16c.4,3.44-.11,6.15-1.49,9.55Z"/>
  <path class="st0" d="M1204.97,156.66l-87.94,30.66c-.63-2.66-.16-5.59,1.11-8.85l88.08-30.78c.24,3.53-.18,5.55-1.25,8.97Z"/>
  <path class="st0" d="M1297.05,154.16l-85.17,30.44c-.02-3.7.55-6.38,1.69-9.51l84.46-29.99c.56,2.79.06,5.89-.98,9.06h0Z"/>
  <path class="st0" d="M582.83,447.37c-7.28,9.15-20.51,8.32-31.98,8.1l28.7-13.49c-9.01-4.93-17.24-1.25-26.96-.9l9.49-16.89c2.28-.71,34.41-1.07,31.7,4.99-2.85,6.37-6.75,12.89-10.96,18.18h.01Z"/>
  <path class="st0" d="M725.38,627.94c7.13-3.17,14.63-5,22.57-6.43l31.24-5.62c19.72-3.55,29.99-16.59,27.31-18.02l-3.06-1.64c-2.62-1.41-5.04-3.75-5.13-6.51-.08-2.38,3.11-7.09,6.05-6.01,8.47,3.11,10.32,11.89,12.83,19.81,2.55-6.28,1.66-28.3,11.23-23.93,1.68.77,4.39,3.48,4.17,5.72-.19,1.83-2.39,5.56-3.26,5.69l-3.25-2.93c-.69-.62-3.14,1.67-3.33,2.62-2.06,10.16-.79,22.8-6.9,26.6l-5.26-15.73c-6.83,10.79-20.23,16.02-32.28,18.64-17.57,3.82-34.72,6.07-52.92,7.75h0Z"/>
  <path class="st0" d="M261.46,432.22c-12.61,23.57-15.55,28.19-43.27,27.28,9.84-5.61,19.14-8.19,28.01-14.37-9.64-1.88-17.14-1.27-26.64-.38l9.57-16.5c8.26-.59,24.64-1.64,32.33,3.98h0Z"/>
  <path class="st0" d="M246.6,275.71l23.63-10.81c1.3-.59,2.76-1.96,4-3.39-9.07-1.54-16.76-.7-25.74.03,2.79-6.45,5.88-11.45,10.07-16.51,7.13-.22,25.5-.85,29.93,3.02,2.44,2.13-8.41,20.14-15.39,24.44-7.56,4.65-16.74,4.66-26.5,3.22h0Z"/>
  <path class="st0" d="M1070.64,600.93c7.88-3.7,16.23-5.83,25.31-7.35l29.98-5.02c11.29-1.89,21.35-7.68,27.77-17.1l-5.69-3.96c-2.03-1.41-3.62-4.28-3.14-6.36.57-2.46,3.6-6.13,6.24-4.78,9.34,4.79,9.45,12.35,12.99,20.09,1.52-8.29,1.38-16.31,5.54-23.33,1.61-2.72,6.59-.09,8.03,1.61,1.82,2.15.81,6.86-1.07,8.4-2.02-1.07-4.29-2.19-6.59-2.4-3.95,7.59-.58,26.12-8.06,28.58l-5.02-15.51c-6,9.38-15.4,14.71-26.24,17.51-14.93,3.86-29.84,6.08-45.2,7.88l-14.83,1.74h-.02Z"/>
  <path class="st0" d="M328.95,385.86c-22,8.34-46.52,10.73-70.68,13.61,2.01-1.39,4.77-2.87,7.01-3.41,15.51-3.74,30.55-6.2,46.31-8.65,12-1.86,23.3-6.91,29.32-18.06-4.38-1.9-8.64-3.42-8.6-8.16.02-1.86,1.65-5.13,3.09-5.79,6.74-3.11,13.63,12.63,15.5,19.27l2.57-15.6c.42-2.56,1.83-6.24,3.91-8.02,1.96-1.67,5.74.47,6.93,2,1.89,2.43,1.47,5.96-.59,8.56l-5.53-2.91c-.67.69-2.33,3.37-2.5,4.67l-2.25,17.65c-.36,2.79-1.58,5.16-4.17,7.36l-5.53-15.67c-3.76,6.22-8.09,10.63-14.79,13.17v-.02Z"/>
  <path class="st0" d="M1058.27,170.31c-5.82,2.35-12.31-.26-13.33-6.47-.52-3.13,3.08-8.48,5.83-10.41,7.27,1.65,12.88,8.05,15.54,14.9l4.75,12.2c1.89-7.59,3.31-29.75,10.67-31.95,4.13-1.24,7.28,2.5,8.53,5.33,1.48,3.34.66,7.15-1.81,10.06l-3.71-3.14c-.82-.69-3.39-1.16-4.31-.69s-2.32,2.47-2.47,3.51l-3.09,22.74c-.65,4.82-1.63,9.15-6.09,13.51l-10.52-29.59h0Z"/>
  <path class="st0" d="M952.27,390.54c11.54-4.8,22.77-6.1,34.5-8.1l19.69-3.34c10.24-1.74,20.62-6.69,26.88-14.62,4.85-6.15-6.28-3.98-7.12-10.76-.32-2.62.68-6.52,3.77-7.16,7.1-1.46,13.07,13.02,14.99,19.79l3.51-18.79c.29-1.56,2.76-4.77,4.18-5.19,2.02-.59,5.32,1.63,6.18,3.17,1.09,1.95.49,6.52-1.21,7.45-14.38-10.13-4.28,24.01-14.99,26.61l-4.6-15.74c-3.73,7.71-10.12,12.08-18.18,14.95-15.42,5.5-31.36,8.22-47.72,10.03-6.66.93-12.76,2.24-19.86,1.69h-.02Z"/>
  <path class="st0" d="M687.91,248.98l-82.8,29.1c.61-4.35,1.11-6.18,2.2-9.51l82.54-28.68c.94,2.11,1.14,8-1.94,9.08h0Z"/>
  <path class="st0" d="M1135.95,535.33c-5.62,15.38-47.1,24.18-61.43,25.39,2.13-3.57,5.74-4.42,9.19-5.44,12.01-3.56,23.78-6.85,35.33-11.53,6.59-2.67,11.9-7.2,14.47-13.59s12.25-12.28,17.47-12.03c2.35.11,6.48,2.92,6.86,5.96.59,4.71-1.17,9.87-3.14,14.06-1.71,3.64-5.56,4.92-9.05,2.87l-9.71-5.68h.01Z"/>
  <path class="st0" d="M552.17,618.72l-15.62-8.61,7.82-16.88,16.58,9.67,7.55-14.21,16.2,9.09c-2.16,6.12-4.5,11.12-7.92,17.31l-15.91-9.71c-3.07,4.07-4.99,7.15-8.7,13.34h0Z"/>
  <path class="st0" d="M873.84,281.87c-4.4.92-7.63.56-10.04-1.78-3.88-3.78-2.84-7.75-.21-11.93,1.03-1.63,4.07-3.22,6.11-2.11,11.67,6.37,11.84,14.51,16.5,25.33,1.97-7.73,3.5-37.4,15.36-29.46,4.85,3.25,5.69,8.98,2.17,13.24l-5.72-3.66c-7.97-5.11-5.5,37.31-13.98,38.59-2.99-9.74-5.28-19.17-10.19-28.22Z"/>
  <path class="st0" d="M262.81,378.89c-5.21-2.48-10.58-5.57-15.78-9.24l8.34-16.19,16.13,9.58,7.85-14.17,15.55,9.3c-2.57,6.49-4.65,11.05-7.89,17.17l-16.15-9.93-8.06,13.48h.01Z"/>
  <path class="st0" d="M183.35,166.51c-11.86,15.32-22.24,19.74-41.29,25.93,4.2-4.66,8.72-7.11,13.67-10.15,8.59-5.26,16.86-10.9,23.5-18.95-3.4-2.69-7.34-4.95-8.35-8.19-2.13-6.82,2.45-12.48,7.96-15.51,3.31-1.82,8.5-3.65,11.28,0,5.96,7.79-5.68,17.32,3.67,20.5l-4.06,9.71-6.39-3.33h.01ZM184.1,153.82c.78-1.14.39-4.86-.65-6.01-1.13-1.23-5.57-.45-5.84,1.26,1.36,1.89,3.47,3.22,6.49,4.75h0Z"/>
  <path class="st0" d="M412.79,233.05l-60.63,21.19c-.52-2.83-.04-6.33,1.55-8.9l65.43-23.33c3.88-1.38,6.78-2.26,11.08-3.3l-1.98,9.01-15.45,5.34h0Z"/>
  <path class="st0" d="M931.58,385.83l15.08-7c-6.14,10.93-24.7,20.2-35.64,14.02-3.07-1.73-2.19-8.08-.06-10.34,5.01-5.3,10.74-9.32,16.6-12.85l-4.13-3.07c-2.02-1.5,1.56-6.08.79-12.22-.27-2.16.37-7.07,3.39-6.69,5.6.7,11.43,4.31,14.87,8.7,3.16,4.03,2.6,10.61-.1,14.58-19.57.78-1.95-.77-27.18,13.04-1.21.66-2.76,4.2-1.53,4.53,6.19,1.62,11.96-.5,17.9-2.69h.01ZM932.56,360.61c0-1.48-1.2-2.69-2.69-2.69s-2.69,1.2-2.69,2.69,1.2,2.69,2.69,2.69,2.69-1.2,2.69-2.69ZM941.28,365.04c-.18-3.15-2.26-5.4-5.11-5.99-.62.61-.36,3.97.5,5.17.73,1.02,3.41,1.42,4.61.82h0Z"/>
  <path class="st0" d="M592.95,600.59c-.1-4.3,1-7.17,2.81-10.12l71.52-25.28c.1,3.31-.27,6.41-1.27,9.3l-73.06,26.1h0Z"/>
  <path class="st0" d="M142.25,153.91l-70.23,25.28c-.83-3.03,0-7.12,2.08-9.64l70.04-25.1c-.17,3.5-.83,6.44-1.89,9.46Z"/>
  <path class="st0" d="M984.77,231.03c-11.42,14.79-20.57,19.12-39.19,24.84l23.87-17.8c4.07-3.04,8.01-6.14,11.63-9.53-3.06-2.72-6.04-4.62-7.53-7.08-3.66-6.07.75-12.16,5.56-15.73,3.58-2.65,9.18-4.34,12.04-.26,3.5,4.98-.78,11.26.19,16.31.41,2.13,3.37,4.65,1.52,7.5-.91,1.41-1.97,3.54-3.09,3.82s-3.48-1.2-5.01-2.09v.02ZM985.09,218.97c1.08-.58.56-4.74-.55-5.97-.94-1.05-5.31-.35-5.03,1.01.39,1.92,3.1,3.85,5.57,4.96h.01Z"/>
  <path class="st0" d="M1302,432.33l-69.49,24.82c.2-3.59.64-6.17,1.54-9.45l69.77-24.8c-.15,3.21-.67,6.06-1.82,9.42h0Z"/>
  <path class="st0" d="M796.75,388.64c-6.96,11.75-28.5,25.32-42.91,27.35l32.02-22.43c2.84-1.99,5.25-5.09,7.18-7.56l-6.56-5.72c-2.94-4.57-.82-9.98,2.14-13.53s8.77-6.75,13.59-3.9c7.26,4.3-4.8,17.6,4.14,19.57l-3.94,8.51-5.67-2.29h0ZM797.24,376.74c.92-2.58.78-5.23-.51-5.48-1.54-.3-3.79.11-5.53.98,2.12,2.19,4.07,3.65,6.04,4.5h0Z"/>
  <path class="st0" d="M498.54,565.81c-4.4,7.18-9.44,13.07-15.83,17.78-4.47,3.3-10.73,2.94-16.15,2.82-4.96-.1-9.1-3.22-8.54-8.51,1.02-9.6,6.78-17.45,14.21-24.29-5.38-2.37-11.39-1.59-15.56,2.89-1.37-5.34,1.61-11.08,6.95-11.86,5.69-.83,10.99.14,17.14,1.77-1.01,4.81-3.1,8.3-6.28,11.94l-10.17,11.63c-.73.83-1.19,3.54-.8,4.47,2.43,5.83,20.07,2.36,25.83-2.37l9.19-6.27h.01Z"/>
  <path class="st0" d="M1011.65,219.74c-.12,4.17.92,7.3,4.62,8.03,2.31.45,6.58-.94,7.8-4.13,3.06-8.04-5.02-17.44,2.24-21.11l2.98,16.04c.37,1.99,2.3,4.79,3.83,5.55s5.75.94,6.58-.52c2.68-4.69-9.97-12.3-.71-21.85l4.81,13.4c2.44,6.79-.44,15.98-7.62,18.68-3.5,1.32-7.6-1.99-10.14-4.33-2.06,3.52-5.25,7.32-9.18,7.39-4.13.07-8.37-3.27-9.43-7.74-1.02-4.31-.32-9.25-.4-13.88-.07-4.17-1.02-8.31,5.05-10.54l-.44,15.03v-.02Z"/>
  <path class="st0" d="M784.21,172.16c-13.83,17.24-24.08,20.4-43.7,30.12.21-2.7,1.91-3.84,4.01-5.07,13.06-7.62,25.45-16.17,35.47-27.78-4.24-2.89-8.28-6.15-7.98-10.88.53-8.21,11.29-14.68,15.37-12.9,6,2.63,3.03,11.75,2.28,17.37-.15,1.09,3.01,2.86,2.65,3.83l-1.61,4.33c-.32.86-1.77,3.32-2.55,2.93l-3.94-1.96h0ZM783.99,160.58c.99-.77.77-3.98-.23-5.3s-4.13-1.09-5.25.83l5.47,4.46h.01Z"/>
  <polygon class="st0" points="237.53 565.81 223.76 557.57 230.32 542.77 245.71 550.18 252.66 537.73 266.9 546.42 260.36 561.84 245.42 553.34 237.53 565.81"/>
  <path class="st0" d="M164.17,437.56c-1.37-4.44-3.09-8.59-5.43-12.84-5.3,2.29-9.02.07-10.85-3.74s.72-10.69,5.47-10.28c5.78.51,10.09,6.41,12.01,11.39l4.81,12.47c2-7.78,2.47-25.77,8.59-28.82,3.73-1.86,9.19,3.27,9.45,6.87.15,2.03-1.57,5.53-3.06,6.39-14.9-15.33-6.57,27-17.01,31.39l-3.97-12.84h0Z"/>
  <path class="st0" d="M209.26,259.52c-4.91-8.81-4.34-16.76-10.59-25.51-3.82.87-6.66.71-8.74-1.75s-2.51-5.49-.98-8.74c.66-1.41,3.03-3.7,4.44-3.86,8.07-.92,14.82,15.94,16.99,23.14,1.81-7.32,2.82-26.67,10.04-28.6,1.45-.39,4.35,1.15,5.59,2.37,3.39,3.35,2.72,9.72-1.14,11.13-13.14-14.94-6.54,26.37-15.6,31.83h0Z"/>
  <path class="st0" d="M307.35,424.67c-6.41,2.05-10.68-.27-12.08-4.88-1.11-3.64,2.2-10.94,6.97-9.35,4.25,1.42,8.43,5.93,10.08,9.86l5.92,14.06c1.39-9.14,2.17-18.05,5.34-26.16,1.58-4.04,6.47-3.19,8.89-1.55,3.27,2.22,3.75,5.36,1.84,9.17l-1.27,2.54c-.77,1.54-2.73-3.83-6.73-3-1.1.23-2.44,2.54-2.58,3.7l-2.65,22.66c-.38,3.24-2.46,6.78-5.15,8.48l-8.61-25.54h.03Z"/>
  <path class="st0" d="M400.26,378.02c-3.33,2.57-10.92,9.18-7.68,13.72,5.04,7.08,24.52-.63,32.48-8.63-.85,4.51-4.27,7.86-7.67,11.14-6.05,5.83-14.23,9.06-22.71,6.65-5.54-1.57-8.02-7.65-6.53-13.22s4.8-10.01,8.58-14.4c-4.08-.74-8.71-2.61-7.98-7.16,1.19-7.35,10.86-16.27,14.53-11.37,1.21,1.61,1.42,6.35-.38,6.34-.97,0-11.46-.62-9.7,2.7.37.7,1.51,1.79,2.31,2.14l6.22,2.72c4.18.27,7.14-4.37,10.21-7.22,1.77,6.77-6.48,12.56-11.68,16.58h0Z"/>
  <path class="st0" d="M1038.02,538.48c3.51,11.18-22.28,19.92-20.23,30.04,1.06,5.25,14.37,6.2,25.44-1.61l7.8-5.5c-4.87,13.36-24.97,23.88-34.48,15.31-7.04-6.34-1.08-17.25,4.52-23.33l-5.87-5.41c-1.53-7.05,4.26-15.94,12.38-15.87,3.3.03,2.75,7.51.65,8.23-3.02-.75-6.38-3.13-9.47,1.29l8.54,6.67c4.22-3.06,7.15-5.93,10.71-9.82h0Z"/>
  <path class="st0" d="M641.23,215.46c-3.4.38-6.31.63-7.99-.35-1.49-.87-3.82-4.02-3.71-5.78.17-2.84,2.26-6.53,4.26-7.89,5.94.12,10.84,5.18,13.01,10.41l5.32,12.79c1.81-6.81,2.08-27.55,9.94-27.95,2.12-.11,4.78,1.8,6.07,3.78,2,3.06,1.44,7.91-1.52,8.85-1.53-1.04-4.07-2.67-5.45-2.68s-3.15,3.13-3.36,4.58l-3.08,22.22c-.37,2.66-2.43,5.52-5.05,6.02-2.57-8.45-4.76-16.57-8.45-24h.01Z"/>
  <path class="st0" d="M691.77,485.51c1.57,18.46,10.58,39.92,4.21,58.98-1.43-10.93-1.81-21.83-4.31-32.69-1.77-7.67-3.61-14.63-4.29-22.7-.31-3.7,1.68-7.61,2.71-11.14,1.24-4.23,1.08-9.5,5.21-12.14,3.33-2.13,7.29.18,10.26,2.41,3.85,2.9,6.65,10.81,1.84,13.57-4.67.55-12.22-1.59-15.62,3.71h-.01Z"/>
  <path class="st0" d="M943.76,478.26c-.81-2.83-2.93-6.81-4.41-8.85-3.78.58-6.47.73-8.5-1.08-2.95-2.64-3.36-5.99-1.5-9.61.61-1.19,2.65-3.08,3.91-3.27,7.8-1.22,15.38,15.88,16.97,23.08l3.88-19.9c.38-1.93,2.28-5.69,3.89-6.8,3.08-2.13,7.44-.05,8.92,3.15,1.05,2.25.36,7.52-2.11,8.25l-4.79-2.85c-1.05-.62-3.49,2.65-3.68,3.89l-2.98,19.67c-.62,4.11-.9,7.63-5.07,10.06l-4.52-15.74h-.01Z"/>
  <path class="st0" d="M110.8,216.73c1.66,19.26,10.18,37.14,4.48,59.04-1.31-9.81-2-19.03-4-28.41l-4.73-22.19c-1.24-5.81.58-11.02,2.63-16.32,1.41-3.63.45-10.02,5.31-11.8,6.23-2.28,14.25,4.26,14.14,10.91-.19,11.26-11.19-1.74-17.82,8.78h-.01Z"/>
  <path class="st0" d="M570.79,208.48c2.18,5.52,1.77,17.9-5.25,18.82-5.24.69-8.83-4.54-8.85-9.38-.11-29.17,16.17-34.25-3.68-57.58-.98-2.58,1.26-7.49,3.18-9.88,10.47,10.12,12.81,24.84,9.12,38.54-1.91,7.09-3.81,13.87-4.62,21.1-.38,3.36,2.14,8.25,5.34,7.44,4.05-1.03,2.81-5.25,4.77-9.06h-.01Z"/>
  <path class="st0" d="M424.59,558.66c3.45,7.46-3.06,28.11-12.62,24.03-11.7-4.99-7.67-24.09-4.27-33.05l8.29-21.87c4.64,6.77-13.42,40.61-.81,42.16,2.36.29,5-1.61,5.67-4,1.05-2.7,1.62-4.19,3.75-7.27h-.01Z"/>
  <path class="st0" d="M730.74,210.47l3.31-9.46c4.82,7.51-.25,25.67-9.76,24.95s-11.71-15.35-8.33-25.24l10.39-30.35c2.81,4.86.22,9.38-1.06,13.83-1.71,5.98-8.49,26.62-.14,28.85,1.46.39,5.05-1.04,5.59-2.58h0Z"/>
  <path class="st0" d="M468.99,239.96c2.35,6.31,1.03,13.37-2.3,19.25-2.29,4.04-7.13,6.47-11.42,4.02-12.53-7.13-3.41-31.36.49-41.65,1.52-4.02,2.35-7.77,5.08-11.93,4.48,6.24-13.72,37.48-1.32,41.89,1.47.52,4.82-1.01,5.45-2.45l4.03-9.13h0Z"/>
  <path class="st0" d="M962.56,190.24c3.38,8.84.58,23.98-8.65,24.61-3.04.21-6.54-2.03-8.36-4.83-3.56-5.45-3.1-12.06-1.53-18.49,2.63-10.74,6.2-21.1,10.94-31.61,3.35,11.01-8.7,23-5.17,37.99.42,1.81,2.81,4.19,4.3,4.46,2.06.38,4.85-1.63,5.57-3.69l2.91-8.44h0Z"/>
  <path class="st0" d="M845.14,371.88l4.06-9.91c3.11,7.26.55,24.22-9.16,24.7-10,.5-12.55-14.34-9.51-24.53s6.69-20.08,10.61-30.71c5.46,6.13-13.43,36.91-1.69,42.37,1.31.61,5.12-.56,5.68-1.93h.01Z"/>
  <path class="st0" d="M228.91,373.04c3.22,6.57.39,22.89-9.19,23.89-6.87.72-12.3-9.85-10.14-20.72,2.38-11.95,6.47-23.06,11.49-34.41,1.46,7.02-1.39,12.77-3.09,19-1.49,5.45-5.73,21.81,2.17,23.38,1.47.29,4.5-1.39,5.14-2.87l3.62-8.28h0Z"/>
  <path class="st0" d="M828.86,497.84l3.73-9.13c3.17,5.08.31,21.47-8.5,21.32-2.19-.04-5.57-2.21-6.72-4.7-5.25-11.4,3.32-28.37,8.17-41.04,3.73,6.64-10.05,27.84-1.99,34.43.93.76,4.79.37,5.3-.89h.01Z"/>
  <polygon class="st0" points="1198.05 526.91 1182.92 519.45 1189.69 503.73 1204.84 511.42 1198.05 526.91"/>
  <polygon class="st0" points="962.88 609.09 947.25 601.94 954.81 586.31 969.47 593.59 962.88 609.09"/>
  <path class="st0" d="M622.44,423.38l-14.18-7.55c1.98-5.52,3.95-9.79,6.9-15.26l14.69,7.37-7.41,15.44h0Z"/>
  <path class="st0" d="M1021.15,190.65c2.66-29.08-22.34-27.44-12.61-44.17,14.47,12.56,19.66,31.15,14.06,49.31-1.07-.64-1.65-2.95-1.45-5.14Z"/>
  <polygon class="st0" points="507.73 454.93 492.72 447.62 499.57 432.48 514.37 439.32 507.73 454.93"/>
  <polygon class="st0" points="854.7 531.24 839.85 523.93 847.27 508.74 861.65 516.35 854.7 531.24"/>
  <polygon class="st0" points="631.22 369.55 616.46 362.37 623.09 347.6 637.36 354.14 631.22 369.55"/>
  <polygon class="st0" points="1287.43 374.4 1273.05 366.54 1280.19 352.35 1294.22 359.15 1287.43 374.4"/>
</svg>