<?xml version="1.0" encoding="UTF-8"?>
<svg xmlns="http://www.w3.org/2000/svg" xmlns:xlink="http://www.w3.org/1999/xlink" version="1.1" viewBox="0 0 206.07 288">
  <!-- Generator: Adobe Illustrator 30.1.0, SVG Export Plug-In . SVG Version: 2.1.1 Build 136)  -->
  <defs>
    <style>
      .st0 {
        fill: #bc0217;
      }

      .st1 {
        fill: #e21f34;
      }

      .st2 {
        fill: #ed273c;
      }

      .st3 {
        fill: #f62d43;
      }

      .st4 {
        fill: #d8172c;
      }

      .st5 {
        fill: #fc3248;
      }

      .st6 {
        fill: #e72238;
      }

      .st7 {
        fill: #ef283e;
      }

      .st8 {
        fill: #e52036;
      }

      .st9 {
        fill: #e01d33;
      }

      .st10 {
        fill: #ba0015;
      }

      .st11 {
        fill: #c90b21;
      }

      .st12, .st13, .st14, .st15, .st16, .st17 {
        isolation: isolate;
      }

      .st18 {
        fill: #d41329;
      }

      .st19 {
        fill: #c0051a;
      }

      .st20 {
        fill: #f12a40;
      }

      .st21 {
        fill: #d6152a;
      }

      .st22 {
        fill: #cb0d22;
      }

      .st23 {
        fill: #de1b31;
      }

      .st24 {
        fill: #da182e;
      }

      .st25 {
        fill: #c3061c;
      }

      .st13 {
        fill: url(#linear-gradient4);
      }

      .st13, .st14, .st15, .st16, .st17 {
        mix-blend-mode: color-dodge;
      }

      .st14 {
        fill: url(#linear-gradient3);
      }

      .st15 {
        fill: url(#linear-gradient1);
      }

      .st16 {
        fill: url(#linear-gradient2);
      }

      .st26 {
        fill: #d11227;
      }

      .st27 {
        fill: #f32c41;
      }

      .st28 {
        fill: #fa3046;
      }

      .st29 {
        fill: #c70a1f;
      }

      .st30 {
        fill: #e92339;
      }

      .st31 {
        fill: #dc1a2f;
      }

      .st32 {
        fill: #c5081d;
      }

      .st33 {
        fill: #eb253b;
      }

      .st34 {
        fill: #cf1025;
      }

      .st35 {
        fill: #cd0f24;
      }

      .st36 {
        fill: #be0318;
      }

      .st37 {
        fill: #f82f45;
      }

      .st17 {
        fill: url(#linear-gradient);
      }
    </style>
    <linearGradient id="linear-gradient" x1="487.31" y1="654.75" x2="535.01" y2="630.46" gradientTransform="translate(-615.23 614.25) rotate(15.31) scale(1 -1)" gradientUnits="userSpaceOnUse">
      <stop offset="0" stop-color="#ffb731"/>
      <stop offset="1" stop-color="#000"/>
    </linearGradient>
    <linearGradient id="linear-gradient1" x1="-581.22" y1="-145.56" x2="-556.5" y2="-158.15" gradientTransform="translate(589.99 -218.62) rotate(-15.79) scale(1 -1)" gradientUnits="userSpaceOnUse">
      <stop offset="0" stop-color="#ffb731"/>
      <stop offset="1" stop-color="#000"/>
    </linearGradient>
    <linearGradient id="linear-gradient2" x1="759.1" y1="959.73" x2="775.64" y2="951.31" gradientTransform="translate(-937.67 690.85) rotate(23.5) scale(1 -1)" gradientUnits="userSpaceOnUse">
      <stop offset="0" stop-color="#ffb731"/>
      <stop offset="1" stop-color="#000"/>
    </linearGradient>
    <linearGradient id="linear-gradient3" x1="-1251.55" y1="-513.16" x2="-1235" y2="-521.58" gradientTransform="translate(835.51 -868.53) rotate(-31.2) scale(1 -1)" gradientUnits="userSpaceOnUse">
      <stop offset="0" stop-color="#ffb731"/>
      <stop offset="1" stop-color="#000"/>
    </linearGradient>
    <linearGradient id="linear-gradient4" x1="-385.83" y1="-166.94" x2="-338.13" y2="-191.24" gradientTransform="translate(409.29 -56.29) rotate(-12.08) scale(1 -1)" gradientUnits="userSpaceOnUse">
      <stop offset="0" stop-color="#ffb731"/>
      <stop offset="1" stop-color="#000"/>
    </linearGradient>
  </defs>
  <g class="st12">
    <g id="Layer_1">
      <g>
        <g>
          <path class="st5" d="M84.95,121.21c1.35,2.41,4.37,3.26,6.78,1.91,4.4-2.47,11.51-5.3,18.99-3.58,15.33,3.53,22.49,17.19,19.8,29.57-2.66,12.23-14.18,20.7-23.1,26.15-12.12,7.41-29.03,13.66-38.56,16.09-6.87-7.05-18.03-21.21-24.5-33.85-4.76-9.3-10.18-22.54-6.06-34.36,4.16-11.97,17.4-19.88,32.32-14.9,7.28,2.44,11.87,8.56,14.33,12.96h0Z"/>
          <path class="st28" d="M84.81,121.84c1.34,2.38,4.32,3.22,6.7,1.89,4.35-2.44,11.38-5.24,18.79-3.54,15.17,3.5,22.25,17.01,19.59,29.26-2.63,12.11-14.04,20.48-22.86,25.87-11.99,7.33-28.72,13.51-38.16,15.92-6.79-6.98-17.84-20.98-24.24-33.49-4.71-9.2-10.07-22.3-6-34,4.12-11.84,17.22-19.67,31.98-14.74,7.21,2.41,11.74,8.47,14.18,12.82h.02Z"/>
          <path class="st37" d="M84.67,122.48c1.32,2.36,4.27,3.19,6.63,1.87,4.3-2.41,11.26-5.19,18.59-3.5,15.01,3.46,22.02,16.83,19.38,28.95-2.6,11.98-13.89,20.26-22.61,25.6-11.86,7.25-28.41,13.37-37.75,15.75-6.72-6.9-17.65-20.76-23.98-33.13-4.66-9.1-9.96-22.06-5.93-33.64,4.08-11.71,17.03-19.46,31.64-14.58,7.13,2.38,11.62,8.38,14.03,12.69h0Z"/>
          <path class="st3" d="M84.53,123.11c1.31,2.33,4.23,3.16,6.56,1.85,4.26-2.39,11.14-5.13,18.39-3.46,14.85,3.42,21.78,16.65,19.17,28.64-2.57,11.85-13.74,20.04-22.37,25.32-11.74,7.17-28.11,13.23-37.34,15.58-6.65-6.83-17.46-20.53-23.72-32.78-4.61-9.01-9.85-21.82-5.87-33.27,4.03-11.59,16.85-19.25,31.3-14.43,7.05,2.36,11.49,8.29,13.88,12.55h0Z"/>
          <path class="st27" d="M84.39,123.75c1.29,2.31,4.18,3.12,6.49,1.83,4.21-2.36,11.02-5.08,18.19-3.43,14.69,3.38,21.54,16.47,18.96,28.33-2.55,11.72-13.59,19.83-22.13,25.05-11.61,7.09-27.8,13.08-36.93,15.41-6.58-6.75-17.27-20.31-23.46-32.42-4.56-8.91-9.75-21.59-5.8-32.91,3.99-11.46,16.67-19.05,30.96-14.27,6.98,2.33,11.37,8.2,13.73,12.41h0Z"/>
          <path class="st20" d="M84.25,124.38c1.28,2.28,4.14,3.09,6.42,1.81,4.16-2.34,10.9-5.02,17.99-3.39,14.53,3.35,21.31,16.29,18.76,28.01-2.52,11.59-13.44,19.61-21.88,24.77-11.48,7.02-27.5,12.94-36.53,15.24-6.5-6.68-17.08-20.09-23.21-32.06-4.51-8.81-9.64-21.35-5.74-32.55,3.94-11.33,16.48-18.84,30.62-14.11,6.9,2.31,11.24,8.11,13.58,12.28h-.01Z"/>
          <path class="st7" d="M84.11,125.02c1.26,2.26,4.09,3.05,6.35,1.79,4.12-2.31,10.78-4.97,17.79-3.35,14.36,3.31,21.07,16.11,18.55,27.7-2.49,11.46-13.29,19.39-21.64,24.49-11.35,6.94-27.19,12.79-36.12,15.07-6.43-6.6-16.89-19.86-22.95-31.71-4.46-8.71-9.53-21.11-5.68-32.19,3.9-11.21,16.3-18.63,30.28-13.95,6.82,2.28,11.12,8.02,13.43,12.14h-.01Z"/>
          <path class="st2" d="M83.97,125.65c1.25,2.23,4.04,3.02,6.28,1.77,4.07-2.28,10.66-4.91,17.59-3.31,14.2,3.27,20.83,15.92,18.34,27.39-2.46,11.33-13.14,19.17-21.39,24.22-11.22,6.86-26.88,12.65-35.71,14.9-6.36-6.53-16.7-19.64-22.69-31.35-4.41-8.61-9.42-20.87-5.61-31.82,3.86-11.08,16.12-18.42,29.94-13.8,6.75,2.26,10.99,7.93,13.27,12h-.02Z"/>
          <path class="st33" d="M83.83,126.29c1.24,2.21,4,2.98,6.2,1.75,4.03-2.26,10.53-4.85,17.39-3.28,14.04,3.23,20.59,15.74,18.13,27.08-2.43,11.2-12.99,18.95-21.15,23.94-11.1,6.78-26.58,12.51-35.31,14.73-6.29-6.45-16.51-19.42-22.43-30.99-4.36-8.52-9.32-20.64-5.55-31.46,3.81-10.96,15.93-18.21,29.59-13.64,6.67,2.23,10.87,7.84,13.12,11.87h.01Z"/>
          <path class="st30" d="M83.69,126.92c1.22,2.18,3.95,2.95,6.13,1.73,3.98-2.23,10.41-4.8,17.19-3.24,13.88,3.2,20.36,15.56,17.92,26.77-2.41,11.07-12.84,18.73-20.91,23.67-10.97,6.7-26.27,12.36-34.9,14.56-6.21-6.38-16.32-19.19-22.17-30.63-4.31-8.42-9.21-20.4-5.48-31.1,3.77-10.83,15.75-18,29.25-13.48,6.59,2.2,10.74,7.75,12.97,11.73h0Z"/>
          <path class="st6" d="M83.55,127.55c1.21,2.15,3.91,2.92,6.06,1.71,3.93-2.21,10.29-4.74,16.99-3.2,13.72,3.16,20.12,15.38,17.71,26.46-2.38,10.94-12.69,18.52-20.66,23.39-10.84,6.63-25.96,12.22-34.49,14.39-6.14-6.31-16.13-18.97-21.91-30.28-4.26-8.32-9.1-20.16-5.42-30.74,3.72-10.7,15.57-17.79,28.91-13.33,6.52,2.18,10.62,7.66,12.82,11.59h0Z"/>
          <path class="st8" d="M83.41,128.19c1.19,2.13,3.86,2.88,5.99,1.69,3.89-2.18,10.17-4.69,16.79-3.16,13.55,3.12,19.88,15.2,17.5,26.14-2.35,10.82-12.54,18.3-20.42,23.11-10.71,6.55-25.66,12.07-34.09,14.22-6.07-6.23-15.94-18.74-21.66-29.92-4.21-8.22-9-19.92-5.36-30.37,3.68-10.58,15.38-17.58,28.57-13.17,6.44,2.15,10.49,7.57,12.67,11.46h0Z"/>
          <path class="st1" d="M83.26,128.82c1.18,2.1,3.81,2.85,5.92,1.67,3.84-2.15,10.05-4.63,16.59-3.12,13.39,3.09,19.64,15.02,17.29,25.83-2.32,10.69-12.39,18.08-20.18,22.84-10.58,6.47-25.35,11.93-33.68,14.05-6-6.16-15.75-18.52-21.4-29.56-4.16-8.12-8.89-19.68-5.29-30.01,3.64-10.45,15.2-17.37,28.23-13.01,6.36,2.13,10.37,7.48,12.52,11.32h0Z"/>
          <path class="st9" d="M83.12,129.46c1.16,2.08,3.77,2.81,5.85,1.65,3.79-2.13,9.93-4.57,16.39-3.09,13.23,3.05,19.41,14.84,17.08,25.52-2.29,10.56-12.24,17.86-19.93,22.56-10.46,6.39-25.05,11.78-33.27,13.88-5.92-6.08-15.55-18.3-21.14-29.21-4.11-8.03-8.78-19.45-5.23-29.65,3.59-10.32,15.01-17.16,27.89-12.85,6.29,2.1,10.24,7.39,12.37,11.18h-.01Z"/>
          <path class="st23" d="M82.98,130.09c1.15,2.05,3.72,2.78,5.77,1.63,3.75-2.1,9.81-4.52,16.18-3.05,13.07,3.01,19.17,14.66,16.88,25.21-2.27,10.43-12.09,17.64-19.69,22.29-10.33,6.31-24.74,11.64-32.87,13.71-5.85-6.01-15.36-18.07-20.88-28.85-4.06-7.93-8.67-19.21-5.16-29.29,3.55-10.2,14.83-16.95,27.55-12.7,6.21,2.08,10.12,7.3,12.22,11.05h0Z"/>
          <path class="st31" d="M82.84,130.73c1.14,2.03,3.68,2.74,5.7,1.61,3.7-2.08,9.68-4.46,15.98-3.01,12.91,2.97,18.93,14.47,16.67,24.9-2.24,10.3-11.94,17.42-19.44,22.01-10.2,6.23-24.43,11.5-32.46,13.54-5.78-5.93-15.17-17.85-20.62-28.49-4.01-7.83-8.57-18.97-5.1-28.92,3.5-10.07,14.65-16.74,27.21-12.54,6.13,2.05,9.99,7.21,12.07,10.91h0Z"/>
          <path class="st24" d="M82.7,131.36c1.12,2,3.63,2.71,5.63,1.59,3.65-2.05,9.56-4.41,15.78-2.97,12.75,2.94,18.7,14.29,16.46,24.58-2.21,10.17-11.79,17.21-19.2,21.74-10.07,6.16-24.13,11.35-32.05,13.37-5.71-5.86-14.98-17.63-20.36-28.14-3.96-7.73-8.46-18.73-5.04-28.56,3.46-9.95,14.46-16.53,26.87-12.38,6.06,2.02,9.87,7.12,11.91,10.77Z"/>
          <path class="st4" d="M82.56,132c1.11,1.98,3.58,2.67,5.56,1.57,3.61-2.02,9.44-4.35,15.58-2.94,12.58,2.9,18.46,14.11,16.25,24.27-2.18,10.04-11.64,16.99-18.96,21.46-9.95,6.08-23.82,11.21-31.65,13.2-5.63-5.79-14.79-17.4-20.11-27.78-3.91-7.63-8.35-18.5-4.97-28.2,3.42-9.82,14.28-16.32,26.53-12.23,5.98,2,9.74,7.03,11.76,10.64h.01Z"/>
          <path class="st21" d="M82.42,132.63c1.09,1.95,3.54,2.64,5.49,1.55,3.56-2,9.32-4.29,15.38-2.9,12.42,2.86,18.22,13.93,16.04,23.96-2.15,9.91-11.49,16.77-18.71,21.18-9.82,6-23.52,11.06-31.24,13.03-5.56-5.71-14.6-17.18-19.85-27.42-3.86-7.53-8.24-18.26-4.91-27.84,3.37-9.69,14.1-16.11,26.19-12.07,5.9,1.97,9.62,6.94,11.61,10.5h0Z"/>
          <path class="st18" d="M82.28,133.27c1.08,1.93,3.49,2.61,5.42,1.53,3.52-1.97,9.2-4.24,15.18-2.86,12.26,2.83,17.98,13.75,15.83,23.65-2.13,9.78-11.34,16.55-18.47,20.91-9.69,5.92-23.21,10.92-30.83,12.86-5.49-5.64-14.41-16.96-19.59-27.06-3.81-7.44-8.14-18.02-4.85-27.47,3.33-9.57,13.91-15.9,25.84-11.91,5.82,1.95,9.49,6.85,11.46,10.36h.01Z"/>
          <path class="st26" d="M82.14,133.9c1.06,1.9,3.45,2.57,5.35,1.51,3.47-1.95,9.08-4.18,14.98-2.82,12.1,2.79,17.75,13.57,15.62,23.34-2.1,9.65-11.19,16.33-18.23,20.63-9.56,5.84-22.9,10.78-30.43,12.7-5.42-5.56-14.22-16.73-19.33-26.71-3.76-7.34-8.03-17.78-4.78-27.11,3.28-9.44,13.73-15.69,25.5-11.75,5.75,1.92,9.37,6.76,11.31,10.23v-.02Z"/>
          <path class="st34" d="M82,134.54c1.05,1.88,3.4,2.54,5.27,1.49,3.42-1.92,8.96-4.13,14.78-2.78,11.94,2.75,17.51,13.39,15.41,23.02-2.07,9.52-11.04,16.11-17.98,20.36-9.43,5.77-22.6,10.63-30.02,12.53-5.35-5.49-14.03-16.51-19.07-26.35-3.71-7.24-7.92-17.55-4.72-26.75,3.24-9.32,13.55-15.48,25.16-11.6,5.67,1.9,9.24,6.67,11.16,10.09h.01Z"/>
          <path class="st35" d="M81.86,135.17c1.04,1.85,3.35,2.5,5.2,1.47,3.38-1.89,8.84-4.07,14.58-2.75,11.78,2.71,17.27,13.2,15.2,22.71-2.04,9.4-10.89,15.9-17.74,20.08-9.31,5.69-22.29,10.49-29.61,12.36-5.27-5.41-13.84-16.28-18.81-25.99-3.66-7.14-7.81-17.31-4.65-26.39,3.2-9.19,13.36-15.27,24.82-11.44,5.59,1.87,9.11,6.58,11.01,9.95Z"/>
          <path class="st22" d="M81.72,135.81c1.02,1.82,3.31,2.47,5.13,1.45,3.33-1.87,8.71-4.01,14.38-2.71,11.61,2.68,17.03,13.02,15,22.4-2.01,9.27-10.74,15.68-17.5,19.8-9.18,5.61-21.98,10.34-29.21,12.19-5.2-5.34-13.65-16.06-18.55-25.64-3.61-7.04-7.71-17.07-4.59-26.02,3.15-9.06,13.18-15.06,24.48-11.28,5.52,1.84,8.99,6.49,10.86,9.82h0Z"/>
          <path class="st11" d="M81.58,136.44c1.01,1.8,3.26,2.43,5.06,1.43,3.28-1.84,8.59-3.96,14.18-2.67,11.45,2.64,16.8,12.84,14.79,22.09-1.99,9.14-10.59,15.46-17.25,19.53-9.05,5.53-21.68,10.2-28.8,12.02-5.13-5.26-13.46-15.84-18.3-25.28-3.56-6.95-7.6-16.83-4.53-25.66,3.11-8.94,13-14.85,24.14-11.13,5.44,1.82,8.86,6.4,10.7,9.68h.01Z"/>
          <path class="st29" d="M81.44,137.07c.99,1.77,3.22,2.4,4.99,1.4,3.24-1.82,8.47-3.9,13.98-2.63,11.29,2.6,16.56,12.66,14.58,21.78-1.96,9.01-10.44,15.24-17.01,19.25-8.92,5.45-21.37,10.06-28.39,11.85-5.06-5.19-13.27-15.61-18.04-24.92-3.51-6.85-7.49-16.59-4.46-25.3,3.07-8.81,12.81-14.64,23.8-10.97,5.36,1.79,8.74,6.31,10.55,9.54h0Z"/>
          <path class="st32" d="M81.3,137.71c.98,1.75,3.17,2.37,4.92,1.38,3.19-1.79,8.35-3.85,13.78-2.6,11.13,2.56,16.32,12.48,14.37,21.46-1.93,8.88-10.29,15.02-16.76,18.98-8.8,5.38-21.07,9.91-27.99,11.68-4.98-5.12-13.08-15.39-17.78-24.57-3.46-6.75-7.39-16.36-4.4-24.94,3.02-8.68,12.63-14.43,23.46-10.81,5.29,1.77,8.61,6.22,10.4,9.41h0Z"/>
          <path class="st25" d="M81.16,138.34c.97,1.72,3.12,2.33,4.85,1.36,3.14-1.76,8.23-3.79,13.58-2.56,10.97,2.53,16.09,12.3,14.16,21.15-1.9,8.75-10.15,14.8-16.52,18.7-8.67,5.3-20.76,9.77-27.58,11.51-4.91-5.04-12.89-15.17-17.52-24.21-3.4-6.65-7.28-16.12-4.33-24.57,2.98-8.56,12.45-14.22,23.12-10.65,5.21,1.74,8.49,6.12,10.25,9.27h0Z"/>
          <path class="st19" d="M81.02,138.98c.95,1.7,3.08,2.3,4.77,1.34,3.1-1.74,8.11-3.74,13.38-2.52,10.81,2.49,15.85,12.12,13.95,20.84-1.87,8.62-10,14.59-16.28,18.43-8.54,5.22-20.45,9.62-27.17,11.34-4.84-4.97-12.7-14.94-17.26-23.85-3.35-6.55-7.17-15.88-4.27-24.21,2.93-8.43,12.26-14.01,22.78-10.5,5.13,1.72,8.36,6.03,10.1,9.13h0Z"/>
          <path class="st36" d="M80.88,139.61c.94,1.67,3.03,2.26,4.7,1.32,3.05-1.71,7.99-3.68,13.18-2.48,10.64,2.45,15.61,11.93,13.74,20.53-1.85,8.49-9.85,14.37-16.03,18.15-8.41,5.14-20.15,9.48-26.77,11.17-4.77-4.89-12.51-14.72-17-23.49-3.3-6.46-7.06-15.64-4.21-23.85,2.89-8.31,12.08-13.8,22.43-10.34,5.06,1.69,8.24,5.94,9.95,9h.01Z"/>
          <path class="st0" d="M80.74,140.25c.92,1.65,2.99,2.23,4.63,1.3,3.01-1.69,7.86-3.62,12.98-2.45,10.48,2.42,15.37,11.75,13.53,20.22-1.82,8.36-9.7,14.15-15.79,17.87-8.28,5.06-19.84,9.34-26.36,11-4.69-4.82-12.32-14.5-16.75-23.14-3.25-6.36-6.96-15.41-4.14-23.49,2.85-8.18,11.89-13.59,22.09-10.18,4.98,1.66,8.11,5.85,9.8,8.86h.01Z"/>
          <path class="st10" d="M80.6,140.88c.91,1.62,2.94,2.19,4.56,1.28,2.96-1.66,7.74-3.57,12.78-2.41,10.32,2.38,15.14,11.57,13.33,19.9-1.79,8.23-9.55,13.93-15.55,17.6-8.16,4.98-19.54,9.19-25.95,10.83-4.62-4.74-12.13-14.27-16.49-22.78-3.2-6.26-6.85-15.17-4.08-23.13,2.8-8.05,11.71-13.38,21.75-10.03,4.9,1.64,7.99,5.76,9.65,8.72v.02Z"/>
        </g>
        <path class="st17" d="M60.06,111.91c-7.85-.34-15.73,4.43-18.22,16.9-3.09,15.51,8.2,32.35,11.44,36.5s-1.41-2.42-4.61-18.5,4.62-23.62,11.64-26.53c7.02-2.92,4.76-8.14-.25-8.36h0Z"/>
      </g>
      <g>
        <g>
          <path class="st5" d="M98.34,68.62c1.24.71,2.81.28,3.52-.97,1.29-2.27,3.69-5.43,7.47-6.67,7.75-2.54,14.58,1.61,16.7,7.82,2.1,6.14-.75,12.98-3.25,17.79-3.39,6.53-9.22,13.83-12.8,17.46-4.93-1.29-13.68-4.58-19.93-8.46-4.6-2.85-10.55-7.28-11.89-13.62-1.36-6.42,2.4-13.48,10.35-15.26,3.88-.87,7.56.62,9.83,1.91Z"/>
          <path class="st28" d="M98.45,68.94c1.23.7,2.78.27,3.48-.96,1.28-2.25,3.65-5.37,7.39-6.6,7.67-2.51,14.43,1.59,16.53,7.74,2.07,6.08-.75,12.85-3.22,17.6-3.36,6.46-9.13,13.68-12.67,17.28-4.88-1.28-13.53-4.54-19.72-8.37-4.55-2.82-10.44-7.2-11.76-13.48-1.34-6.36,2.37-13.34,10.25-15.1,3.84-.86,7.48.62,9.73,1.89h0Z"/>
          <path class="st37" d="M98.56,69.26c1.22.69,2.75.27,3.44-.95,1.26-2.22,3.61-5.32,7.31-6.53,7.59-2.48,14.28,1.58,16.35,7.66,2.05,6.01-.74,12.71-3.18,17.41-3.32,6.39-9.03,13.54-12.53,17.09-4.83-1.26-13.39-4.49-19.51-8.28-4.51-2.79-10.33-7.12-11.64-13.34-1.33-6.29,2.35-13.2,10.14-14.94,3.8-.85,7.4.61,9.62,1.87h0Z"/>
          <path class="st3" d="M98.67,69.58c1.2.69,2.72.27,3.41-.94,1.25-2.2,3.57-5.26,7.23-6.46,7.5-2.46,14.12,1.56,16.17,7.58,2.03,5.95-.73,12.57-3.15,17.22-3.29,6.32-8.93,13.39-12.4,16.91-4.78-1.25-13.24-4.44-19.3-8.19-4.46-2.76-10.21-7.05-11.51-13.19-1.31-6.22,2.32-13.05,10.03-14.78,3.76-.84,7.32.6,9.52,1.85Z"/>
          <path class="st27" d="M98.78,69.9c1.19.68,2.69.27,3.37-.93,1.24-2.18,3.53-5.2,7.15-6.39,7.42-2.43,13.97,1.54,16,7.49,2.01,5.88-.72,12.43-3.11,17.04-3.25,6.26-8.83,13.25-12.26,16.73-4.73-1.24-13.1-4.39-19.09-8.1-4.41-2.73-10.1-6.97-11.39-13.05-1.3-6.15,2.3-12.91,9.92-14.62,3.72-.83,7.24.6,9.41,1.83Z"/>
          <path class="st20" d="M98.88,70.22c1.18.67,2.66.26,3.33-.92,1.22-2.15,3.49-5.15,7.07-6.32,7.34-2.4,13.81,1.52,15.82,7.41,1.98,5.82-.71,12.3-3.08,16.85-3.22,6.19-8.74,13.1-12.13,16.54-4.67-1.22-12.95-4.34-18.88-8.02-4.36-2.7-9.99-6.89-11.26-12.91-1.28-6.09,2.27-12.77,9.81-14.46,3.68-.82,7.16.59,9.31,1.81v.02Z"/>
          <path class="st7" d="M98.99,70.54c1.16.66,2.63.26,3.29-.91,1.21-2.13,3.45-5.09,7-6.25,7.26-2.38,13.66,1.51,15.65,7.33,1.96,5.75-.71,12.16-3.04,16.66-3.18,6.12-8.64,12.96-11.99,16.36-4.62-1.21-12.81-4.29-18.67-7.93-4.31-2.67-9.88-6.82-11.13-12.76-1.27-6.02,2.25-12.63,9.7-14.3,3.64-.81,7.08.58,9.21,1.79h-.02Z"/>
          <path class="st2" d="M99.1,70.86c1.15.66,2.6.26,3.26-.9,1.2-2.1,3.41-5.03,6.92-6.18,7.18-2.35,13.51,1.49,15.47,7.25,1.94,5.69-.7,12.02-3.01,16.47-3.14,6.05-8.54,12.81-11.86,16.17-4.57-1.19-12.67-4.25-18.46-7.84-4.26-2.64-9.77-6.74-11.01-12.62-1.26-5.95,2.22-12.49,9.59-14.14,3.6-.81,7,.58,9.1,1.77v.02Z"/>
          <path class="st33" d="M99.21,71.18c1.14.65,2.57.25,3.22-.89,1.18-2.08,3.38-4.97,6.84-6.11,7.1-2.32,13.35,1.47,15.29,7.16,1.92,5.62-.69,11.89-2.98,16.29-3.11,5.98-8.45,12.66-11.72,15.99-4.52-1.18-12.52-4.2-18.25-7.75-4.21-2.61-9.66-6.66-10.88-12.48-1.24-5.88,2.2-12.34,9.48-13.97,3.56-.8,6.92.57,9,1.75h0Z"/>
          <path class="st30" d="M99.31,71.5c1.13.64,2.54.25,3.18-.88,1.17-2.06,3.34-4.92,6.76-6.04,7.01-2.3,13.2,1.46,15.12,7.08,1.9,5.56-.68,11.75-2.94,16.1-3.07,5.91-8.35,12.52-11.59,15.8-4.47-1.17-12.38-4.15-18.04-7.66-4.17-2.58-9.55-6.59-10.76-12.33-1.23-5.81,2.17-12.2,9.37-13.81,3.52-.79,6.84.56,8.9,1.73h0Z"/>
          <path class="st6" d="M99.42,71.81c1.11.63,2.51.25,3.15-.86,1.15-2.03,3.3-4.86,6.68-5.97,6.93-2.27,13.04,1.44,14.94,7,1.87,5.49-.67,11.61-2.91,15.91-3.04,5.84-8.25,12.37-11.45,15.62-4.41-1.15-12.23-4.1-17.83-7.57-4.12-2.55-9.44-6.51-10.63-12.19-1.21-5.75,2.15-12.06,9.26-13.65,3.47-.78,6.76.56,8.79,1.71Z"/>
          <path class="st8" d="M99.53,72.13c1.1.63,2.48.24,3.11-.85,1.14-2.01,3.26-4.8,6.6-5.9,6.85-2.24,12.89,1.42,14.76,6.92,1.85,5.43-.67,11.48-2.87,15.72-3,5.77-8.15,12.23-11.32,15.44-4.36-1.14-12.09-4.05-17.62-7.48-4.07-2.52-9.32-6.43-10.51-12.04-1.2-5.68,2.12-11.92,9.15-13.49,3.43-.77,6.68.55,8.69,1.69h.01Z"/>
          <path class="st1" d="M99.64,72.45c1.09.62,2.45.24,3.07-.84,1.13-1.98,3.22-4.74,6.52-5.83,6.77-2.22,12.74,1.41,14.59,6.83,1.83,5.36-.66,11.34-2.84,15.54-2.97,5.7-8.06,12.08-11.18,15.25-4.31-1.13-11.94-4-17.41-7.39-4.02-2.49-9.21-6.36-10.38-11.9-1.18-5.61,2.1-11.77,9.04-13.33,3.39-.76,6.6.54,8.59,1.67Z"/>
          <path class="st9" d="M99.74,72.77c1.07.61,2.42.24,3.03-.83,1.11-1.96,3.18-4.69,6.44-5.76,6.69-2.19,12.58,1.39,14.41,6.75,1.81,5.3-.65,11.2-2.8,15.35-2.93,5.64-7.96,11.93-11.05,15.07-4.26-1.11-11.8-3.96-17.2-7.3-3.97-2.46-9.1-6.28-10.26-11.76-1.17-5.54,2.07-11.63,8.93-13.17,3.35-.75,6.52.54,8.48,1.65h.02Z"/>
          <path class="st23" d="M99.85,73.09c1.06.6,2.4.24,3-.82,1.1-1.94,3.14-4.63,6.37-5.69,6.61-2.16,12.43,1.37,14.24,6.67,1.79,5.23-.64,11.07-2.77,15.16-2.89,5.57-7.86,11.79-10.91,14.88-4.21-1.1-11.66-3.91-16.99-7.21-3.92-2.43-8.99-6.2-10.13-11.61-1.16-5.48,2.04-11.49,8.83-13.01,3.31-.74,6.44.53,8.38,1.63h-.02Z"/>
          <path class="st31" d="M99.96,73.41c1.05.6,2.37.23,2.96-.81,1.09-1.91,3.1-4.57,6.29-5.61,6.52-2.14,12.28,1.35,14.06,6.59,1.76,5.17-.63,10.93-2.74,14.97-2.86,5.5-7.76,11.64-10.78,14.7-4.15-1.09-11.51-3.86-16.78-7.12-3.87-2.4-8.88-6.13-10.01-11.47-1.14-5.41,2.02-11.35,8.72-12.85,3.27-.73,6.36.52,8.27,1.61h.01Z"/>
          <path class="st24" d="M100.07,73.73c1.03.59,2.34.23,2.92-.8,1.07-1.89,3.06-4.52,6.21-5.54,6.44-2.11,12.12,1.34,13.88,6.5,1.74,5.1-.63,10.79-2.7,14.78-2.82,5.43-7.67,11.5-10.64,14.51-4.1-1.07-11.37-3.81-16.57-7.03-3.83-2.37-8.77-6.05-9.88-11.33-1.13-5.34,1.99-11.21,8.61-12.69,3.23-.72,6.28.52,8.17,1.59h0Z"/>
          <path class="st4" d="M100.18,74.05c1.02.58,2.31.23,2.89-.79,1.06-1.86,3.03-4.46,6.13-5.47,6.36-2.08,11.97,1.32,13.71,6.42,1.72,5.04-.62,10.65-2.67,14.6-2.79,5.36-7.57,11.35-10.51,14.33-4.05-1.06-11.22-3.76-16.36-6.94-3.78-2.34-8.66-5.97-9.76-11.18-1.11-5.27,1.97-11.06,8.5-12.53,3.19-.71,6.2.51,8.07,1.57h0Z"/>
          <path class="st21" d="M100.28,74.37c1.01.57,2.28.22,2.85-.78,1.05-1.84,2.99-4.4,6.05-5.4,6.28-2.06,11.81,1.3,13.53,6.34,1.7,4.97-.61,10.52-2.63,14.41-2.75,5.29-7.47,11.2-10.37,14.15-4-1.05-11.08-3.71-16.15-6.86-3.73-2.31-8.55-5.9-9.63-11.04-1.1-5.2,1.94-10.92,8.39-12.36,3.15-.7,6.12.5,7.96,1.55h0Z"/>
          <path class="st18" d="M100.39,74.69c.99.57,2.25.22,2.81-.77,1.03-1.82,2.95-4.34,5.97-5.33,6.2-2.03,11.66,1.29,13.36,6.26,1.68,4.91-.6,10.38-2.6,14.22-2.71,5.22-7.38,11.06-10.24,13.96-3.94-1.03-10.93-3.67-15.94-6.77-3.68-2.28-8.43-5.82-9.5-10.89-1.08-5.14,1.92-10.78,8.28-12.2,3.11-.7,6.04.5,7.86,1.53h0Z"/>
          <path class="st26" d="M100.5,75.01c.98.56,2.22.22,2.78-.76,1.02-1.79,2.91-4.29,5.89-5.26,6.11-2,11.51,1.27,13.18,6.17,1.65,4.85-.59,10.24-2.56,14.03-2.68,5.15-7.28,10.91-10.1,13.78-3.89-1.02-10.79-3.62-15.73-6.68-3.63-2.25-8.32-5.74-9.38-10.75-1.07-5.07,1.89-10.64,8.17-12.04,3.06-.69,5.96.49,7.76,1.51h-.01Z"/>
          <path class="st34" d="M100.61,75.32c.97.55,2.19.22,2.74-.75,1.01-1.77,2.87-4.23,5.81-5.19,6.03-1.97,11.35,1.25,13,6.09,1.63,4.78-.59,10.11-2.53,13.85-2.64,5.08-7.18,10.77-9.97,13.59-3.84-1-10.65-3.57-15.52-6.59-3.58-2.22-8.21-5.66-9.25-10.61-1.06-5,1.87-10.49,8.06-11.88,3.02-.68,5.88.48,7.65,1.49h.01Z"/>
          <path class="st35" d="M100.71,75.64c.96.54,2.16.21,2.7-.74.99-1.74,2.83-4.17,5.74-5.12,5.95-1.95,11.2,1.24,12.83,6.01,1.61,4.72-.58,9.97-2.5,13.66-2.61,5.02-7.08,10.62-9.83,13.41-3.79-.99-10.5-3.52-15.31-6.5-3.53-2.19-8.1-5.59-9.13-10.46-1.04-4.93,1.84-10.35,7.95-11.72,2.98-.67,5.8.48,7.55,1.47h0Z"/>
          <path class="st22" d="M100.82,75.96c.94.54,2.13.21,2.66-.73.98-1.72,2.79-4.11,5.66-5.05,5.87-1.92,11.05,1.22,12.65,5.92,1.59,4.65-.57,9.83-2.46,13.47-2.57,4.95-6.99,10.47-9.7,13.23-3.74-.98-10.36-3.47-15.1-6.41-3.49-2.16-7.99-5.51-9-10.32-1.03-4.87,1.82-10.21,7.84-11.56,2.94-.66,5.73.47,7.44,1.45h0Z"/>
          <path class="st11" d="M100.93,76.28c.93.53,2.1.21,2.63-.72.96-1.7,2.75-4.06,5.58-4.98,5.79-1.89,10.89,1.2,12.47,5.84,1.56,4.59-.56,9.7-2.43,13.28-2.54,4.88-6.89,10.33-9.56,13.04-3.68-.96-10.21-3.42-14.89-6.32-3.44-2.13-7.88-5.43-8.88-10.18-1.01-4.8,1.79-10.07,7.73-11.4,2.9-.65,5.65.47,7.34,1.43h0Z"/>
          <path class="st29" d="M101.04,76.6c.92.52,2.07.2,2.59-.71.95-1.67,2.71-4,5.5-4.91,5.71-1.87,10.74,1.18,12.3,5.76,1.54,4.52-.55,9.56-2.39,13.1-2.5,4.81-6.79,10.18-9.43,12.86-3.63-.95-10.07-3.38-14.68-6.23-3.39-2.1-7.77-5.36-8.75-10.03-1-4.73,1.77-9.93,7.62-11.24,2.86-.64,5.57.46,7.24,1.41h0Z"/>
          <path class="st32" d="M101.14,76.92c.9.51,2.04.2,2.55-.7.94-1.65,2.68-3.94,5.42-4.84,5.62-1.84,10.58,1.17,12.12,5.68,1.52,4.46-.55,9.42-2.36,12.91-2.46,4.74-6.69,10.04-9.29,12.67-3.58-.94-9.92-3.33-14.47-6.14-3.34-2.07-7.66-5.28-8.63-9.89-.98-4.66,1.74-9.78,7.51-11.08,2.82-.63,5.49.45,7.13,1.39h.02Z"/>
          <path class="st25" d="M101.25,77.24c.89.51,2.01.2,2.52-.69.92-1.62,2.64-3.88,5.34-4.77,5.54-1.81,10.43,1.15,11.95,5.6,1.5,4.39-.54,9.28-2.32,12.72-2.43,4.67-6.6,9.89-9.16,12.49-3.53-.92-9.78-3.28-14.25-6.05-3.29-2.04-7.54-5.2-8.5-9.74-.97-4.59,1.72-9.64,7.41-10.92,2.78-.62,5.41.45,7.03,1.37h-.02Z"/>
          <path class="st19" d="M101.36,77.56c.88.5,1.98.2,2.48-.68.91-1.6,2.6-3.83,5.26-4.7,5.46-1.79,10.28,1.13,11.77,5.51,1.48,4.33-.53,9.15-2.29,12.53-2.39,4.6-6.5,9.75-9.02,12.3-3.48-.91-9.64-3.23-14.04-5.96-3.24-2.01-7.43-5.13-8.38-9.6-.96-4.53,1.69-9.5,7.3-10.75,2.74-.61,5.33.44,6.93,1.35h-.01Z"/>
          <path class="st36" d="M101.47,77.88c.86.49,1.95.19,2.44-.67.9-1.58,2.56-3.77,5.18-4.63,5.38-1.76,10.12,1.12,11.59,5.43,1.45,4.26-.52,9.01-2.26,12.35-2.36,4.53-6.4,9.6-8.89,12.12-3.42-.9-9.49-3.18-13.83-5.87-3.19-1.98-7.32-5.05-8.25-9.46-.94-4.46,1.66-9.36,7.19-10.59,2.7-.6,5.25.43,6.82,1.33h0Z"/>
          <path class="st0" d="M101.58,78.2c.85.48,1.92.19,2.4-.66.88-1.55,2.52-3.71,5.11-4.56,5.3-1.73,9.97,1.1,11.42,5.35,1.43,4.2-.51,8.87-2.22,12.16-2.32,4.46-6.31,9.45-8.75,11.94-3.37-.88-9.35-3.13-13.62-5.78-3.15-1.95-7.21-4.97-8.13-9.31-.93-4.39,1.64-9.22,7.08-10.43,2.66-.59,5.17.43,6.72,1.31v-.02Z"/>
          <path class="st10" d="M101.68,78.52c.84.48,1.89.19,2.37-.65.87-1.53,2.48-3.66,5.03-4.49,5.22-1.71,9.81,1.08,11.24,5.27,1.41,4.13-.51,8.74-2.19,11.97-2.28,4.4-6.21,9.31-8.62,11.75-3.32-.87-9.2-3.09-13.41-5.69-3.1-1.92-7.1-4.9-8-9.17-.91-4.32,1.61-9.07,6.97-10.27,2.61-.59,5.09.42,6.62,1.29h0Z"/>
        </g>
        <path class="st15" d="M84.81,71.16c-3.57,1.95-5.8,6.18-3.56,12.38,2.78,7.71,12.3,12.16,14.85,13.13,2.55.98-1.28-.7-7-6.98-5.73-6.28-4.27-11.72-1.94-14.89s-.07-4.89-2.35-3.64Z"/>
      </g>
      <g>
        <g>
          <path class="st5" d="M160.32,119.58c.34.89,1.34,1.33,2.23.99,1.63-.63,4.21-1.25,6.7-.29,5.09,1.97,6.87,7.01,5.34,11.13-1.52,4.07-5.89,6.41-9.22,7.84-4.53,1.94-10.64,3.25-14.03,3.62-2.01-2.76-5.14-8.17-6.74-12.83-1.17-3.43-2.38-8.24-.38-12.09,2.02-3.9,6.96-5.97,11.83-3.52,2.38,1.2,3.65,3.53,4.28,5.16h0Z"/>
          <path class="st28" d="M160.24,119.79c.34.88,1.32,1.32,2.21.98,1.61-.62,4.17-1.24,6.62-.29,5.04,1.95,6.8,6.94,5.28,11.01-1.5,4.03-5.83,6.34-9.12,7.75-4.48,1.92-10.53,3.22-13.88,3.58-1.99-2.73-5.09-8.08-6.67-12.69-1.16-3.39-2.35-8.15-.38-11.97,2-3.86,6.88-5.9,11.71-3.48,2.36,1.18,3.61,3.49,4.23,5.1h0Z"/>
          <path class="st37" d="M160.16,120c.34.87,1.31,1.31,2.18.97,1.6-.62,4.12-1.22,6.55-.28,4.98,1.93,6.73,6.87,5.22,10.9-1.49,3.98-5.77,6.27-9.03,7.67-4.43,1.9-10.41,3.19-13.74,3.54-1.97-2.7-5.03-8-6.6-12.56-1.15-3.36-2.33-8.07-.37-11.84,1.98-3.82,6.81-5.84,11.58-3.44,2.33,1.17,3.57,3.45,4.19,5.05h.02Z"/>
          <path class="st3" d="M160.08,120.21c.33.87,1.3,1.29,2.16.96,1.58-.61,4.08-1.21,6.48-.28,4.93,1.91,6.65,6.79,5.17,10.78-1.47,3.94-5.71,6.2-8.93,7.59-4.38,1.88-10.3,3.15-13.59,3.5-1.95-2.67-4.98-7.91-6.52-12.42-1.14-3.32-2.3-7.98-.37-11.71,1.96-3.78,6.74-5.78,11.46-3.41,2.31,1.16,3.54,3.41,4.14,4.99Z"/>
          <path class="st27" d="M160,120.43c.33.86,1.28,1.28,2.14.95,1.56-.6,4.03-1.2,6.41-.28,4.87,1.89,6.58,6.72,5.11,10.66-1.45,3.9-5.64,6.13-8.83,7.5-4.34,1.86-10.19,3.12-13.44,3.47-1.92-2.64-4.92-7.83-6.45-12.29-1.13-3.28-2.28-7.89-.37-11.58,1.94-3.74,6.66-5.71,11.33-3.37,2.28,1.15,3.5,3.38,4.1,4.94h0Z"/>
          <path class="st20" d="M159.92,120.64c.33.85,1.27,1.26,2.11.94,1.55-.6,3.99-1.19,6.34-.27,4.82,1.87,6.51,6.64,5.05,10.54-1.44,3.85-5.58,6.07-8.74,7.42-4.29,1.84-10.08,3.08-13.29,3.43-1.9-2.61-4.87-7.74-6.38-12.15-1.11-3.25-2.25-7.81-.36-11.46,1.91-3.7,6.59-5.65,11.21-3.33,2.25,1.13,3.46,3.34,4.05,4.89h0Z"/>
          <path class="st7" d="M159.84,120.85c.32.84,1.25,1.25,2.09.93,1.53-.59,3.94-1.17,6.27-.27,4.77,1.85,6.44,6.57,5,10.43-1.42,3.81-5.52,6-8.64,7.34-4.24,1.82-9.97,3.05-13.14,3.39-1.88-2.58-4.82-7.65-6.31-12.02-1.1-3.21-2.23-7.72-.36-11.33,1.89-3.65,6.52-5.59,11.08-3.29,2.23,1.12,3.42,3.3,4.01,4.83h0Z"/>
          <path class="st2" d="M159.76,121.06c.32.83,1.24,1.24,2.07.92,1.51-.58,3.9-1.16,6.2-.27,4.71,1.82,6.36,6.5,4.94,10.31-1.41,3.77-5.46,5.93-8.54,7.26-4.19,1.8-9.85,3.01-13,3.35-1.86-2.56-4.76-7.57-6.24-11.88-1.09-3.17-2.2-7.63-.35-11.2,1.87-3.61,6.44-5.53,10.96-3.26,2.2,1.11,3.38,3.27,3.96,4.78h0Z"/>
          <path class="st33" d="M159.68,121.27c.32.82,1.23,1.22,2.04.91,1.49-.58,3.86-1.15,6.13-.27,4.66,1.8,6.29,6.42,4.89,10.19-1.39,3.73-5.39,5.86-8.44,7.17-4.14,1.78-9.74,2.98-12.85,3.31-1.84-2.53-4.71-7.48-6.17-11.75-1.08-3.14-2.18-7.54-.35-11.07,1.85-3.57,6.37-5.46,10.83-3.22,2.18,1.1,3.34,3.23,3.92,4.72h0Z"/>
          <path class="st30" d="M159.6,121.48c.31.81,1.21,1.21,2.02.9,1.48-.57,3.81-1.13,6.06-.26,4.61,1.78,6.22,6.35,4.83,10.07-1.37,3.68-5.33,5.8-8.35,7.09-4.1,1.76-9.63,2.95-12.7,3.27-1.82-2.5-4.65-7.39-6.1-11.61-1.06-3.1-2.15-7.46-.35-10.95,1.83-3.53,6.3-5.4,10.71-3.18,2.15,1.08,3.3,3.19,3.87,4.67h.01Z"/>
          <path class="st6" d="M159.52,121.69c.31.8,1.2,1.19,2,.89,1.46-.56,3.77-1.12,5.99-.26,4.55,1.76,6.15,6.27,4.77,9.96-1.36,3.64-5.27,5.73-8.25,7.01-4.05,1.74-9.52,2.91-12.55,3.24-1.8-2.47-4.6-7.31-6.03-11.48-1.05-3.07-2.13-7.37-.34-10.82,1.81-3.49,6.22-5.34,10.58-3.15,2.13,1.07,3.27,3.15,3.83,4.61h0Z"/>
          <path class="st8" d="M159.44,121.9c.3.79,1.18,1.18,1.97.87,1.44-.56,3.72-1.11,5.92-.26,4.5,1.74,6.07,6.2,4.72,9.84-1.34,3.6-5.21,5.66-8.15,6.93-4,1.72-9.4,2.88-12.4,3.2-1.78-2.44-4.54-7.22-5.96-11.34-1.04-3.03-2.1-7.28-.34-10.69,1.79-3.45,6.15-5.27,10.46-3.11,2.1,1.06,3.23,3.12,3.78,4.56h0Z"/>
          <path class="st1" d="M159.36,122.11c.3.78,1.17,1.17,1.95.86,1.42-.55,3.68-1.09,5.85-.25,4.45,1.72,6,6.13,4.66,9.72-1.33,3.55-5.15,5.59-8.05,6.84-3.95,1.7-9.29,2.84-12.26,3.16-1.75-2.41-4.49-7.14-5.88-11.21-1.03-2.99-2.08-7.2-.33-10.56,1.76-3.41,6.08-5.21,10.33-3.07,2.08,1.04,3.19,3.08,3.74,4.5h-.01Z"/>
          <path class="st9" d="M159.28,122.32c.3.77,1.15,1.15,1.93.85,1.41-.54,3.63-1.08,5.78-.25,4.39,1.7,5.93,6.05,4.6,9.6-1.31,3.51-5.08,5.53-7.96,6.76-3.91,1.68-9.18,2.81-12.11,3.12-1.73-2.38-4.44-7.05-5.81-11.07-1.01-2.96-2.05-7.11-.33-10.44,1.74-3.37,6-5.15,10.21-3.03,2.05,1.03,3.15,3.04,3.69,4.45h0Z"/>
          <path class="st23" d="M159.2,122.54c.29.76,1.14,1.14,1.9.84,1.39-.54,3.59-1.07,5.71-.25,4.34,1.68,5.86,5.98,4.55,9.49-1.29,3.47-5.02,5.46-7.86,6.68-3.86,1.66-9.07,2.77-11.96,3.08-1.71-2.35-4.38-6.96-5.74-10.94-1-2.92-2.03-7.02-.33-10.31,1.72-3.33,5.93-5.09,10.08-3,2.03,1.02,3.11,3.01,3.65,4.4h0Z"/>
          <path class="st31" d="M159.12,122.75c.29.75,1.13,1.12,1.88.83,1.37-.53,3.55-1.05,5.64-.24,4.28,1.66,5.78,5.9,4.49,9.37-1.28,3.43-4.96,5.39-7.76,6.6-3.81,1.64-8.96,2.74-11.81,3.05-1.69-2.32-4.33-6.88-5.67-10.8-.99-2.89-2-6.94-.32-10.18,1.7-3.28,5.86-5.02,9.96-2.96,2,1.01,3.07,2.97,3.6,4.34h-.01Z"/>
          <path class="st24" d="M159.04,122.96c.29.74,1.11,1.11,1.85.82,1.36-.52,3.5-1.04,5.57-.24,4.23,1.64,5.71,5.83,4.44,9.25-1.26,3.38-4.9,5.32-7.67,6.51-3.76,1.62-8.84,2.71-11.66,3.01-1.67-2.29-4.27-6.79-5.6-10.66-.98-2.85-1.98-6.85-.32-10.05,1.68-3.24,5.78-4.96,9.83-2.92,1.98.99,3.04,2.93,3.56,4.29h0Z"/>
          <path class="st4" d="M158.96,123.17c.28.73,1.1,1.1,1.83.81,1.34-.52,3.46-1.03,5.49-.24,4.18,1.62,5.64,5.76,4.38,9.13-1.25,3.34-4.84,5.26-7.57,6.43-3.71,1.6-8.73,2.67-11.52,2.97-1.65-2.26-4.22-6.7-5.53-10.53-.96-2.81-1.95-6.76-.31-9.93,1.66-3.2,5.71-4.9,9.71-2.89,1.95.98,3,2.89,3.51,4.23v.02Z"/>
          <path class="st21" d="M158.88,123.38c.28.72,1.08,1.08,1.81.8,1.32-.51,3.41-1.01,5.42-.23,4.12,1.6,5.57,5.68,4.32,9.02-1.23,3.3-4.77,5.19-7.47,6.35-3.67,1.57-8.62,2.64-11.37,2.93-1.63-2.24-4.16-6.62-5.46-10.39-.95-2.78-1.93-6.68-.31-9.8,1.64-3.16,5.64-4.83,9.59-2.85,1.93.97,2.96,2.86,3.47,4.18h0Z"/>
          <path class="st18" d="M158.81,123.59c.28.71,1.07,1.07,1.78.79,1.3-.5,3.37-1,5.35-.23,4.07,1.58,5.49,5.61,4.27,8.9-1.21,3.25-4.71,5.12-7.37,6.27-3.62,1.55-8.51,2.6-11.22,2.89-1.61-2.21-4.11-6.53-5.39-10.26-.94-2.74-1.9-6.59-.31-9.67,1.62-3.12,5.56-4.77,9.46-2.81,1.9.96,2.92,2.82,3.42,4.12h0Z"/>
          <path class="st26" d="M158.73,123.8c.27.71,1.06,1.05,1.76.78,1.29-.5,3.32-.99,5.28-.23,4.02,1.55,5.42,5.53,4.21,8.78-1.2,3.21-4.65,5.05-7.28,6.18-3.57,1.53-8.39,2.57-11.07,2.86-1.58-2.18-4.06-6.45-5.32-10.12-.93-2.7-1.88-6.5-.3-9.54,1.59-3.08,5.49-4.71,9.34-2.78,1.88.94,2.88,2.78,3.38,4.07Z"/>
          <path class="st34" d="M158.65,124.01c.27.7,1.04,1.04,1.74.77,1.27-.49,3.28-.97,5.21-.23,3.96,1.53,5.35,5.46,4.15,8.67-1.18,3.17-4.59,4.99-7.18,6.1-3.52,1.51-8.28,2.53-10.92,2.82-1.56-2.15-4-6.36-5.25-9.99-.91-2.67-1.85-6.41-.3-9.42,1.57-3.04,5.41-4.64,9.21-2.74,1.85.93,2.84,2.74,3.33,4.02h0Z"/>
          <path class="st35" d="M158.57,124.22c.26.69,1.03,1.02,1.71.76,1.25-.48,3.23-.96,5.14-.22,3.91,1.51,5.28,5.39,4.1,8.55-1.17,3.12-4.52,4.92-7.08,6.02-3.48,1.49-8.17,2.5-10.78,2.78-1.54-2.12-3.95-6.27-5.17-9.85-.9-2.63-1.83-6.33-.29-9.29,1.55-3,5.34-4.58,9.09-2.7,1.83.92,2.8,2.71,3.29,3.96h-.01Z"/>
          <path class="st22" d="M158.49,124.43c.26.68,1.01,1.01,1.69.75,1.24-.48,3.19-.95,5.07-.22,3.85,1.49,5.2,5.31,4.04,8.43-1.15,3.08-4.46,4.85-6.98,5.93-3.43,1.47-8.06,2.46-10.63,2.74-1.52-2.09-3.89-6.19-5.1-9.72-.89-2.6-1.8-6.24-.29-9.16,1.53-2.96,5.27-4.52,8.96-2.66,1.8.91,2.77,2.67,3.24,3.91h0Z"/>
          <path class="st11" d="M158.41,124.64c.26.67,1,1,1.67.74,1.22-.47,3.15-.93,5-.22,3.8,1.47,5.13,5.24,3.99,8.31-1.13,3.04-4.4,4.78-6.89,5.85-3.38,1.45-7.95,2.43-10.48,2.7-1.5-2.06-3.84-6.1-5.03-9.58-.88-2.56-1.78-6.15-.29-9.03,1.51-2.91,5.19-4.46,8.84-2.63,1.78.89,2.73,2.63,3.2,3.85h-.01Z"/>
          <path class="st29" d="M158.33,124.86c.25.66.99.98,1.64.73,1.2-.46,3.1-.92,4.93-.21,3.75,1.45,5.06,5.16,3.93,8.2-1.12,3-4.34,4.72-6.79,5.77-3.33,1.43-7.83,2.4-10.33,2.66-1.48-2.03-3.79-6.02-4.96-9.45-.87-2.52-1.75-6.07-.28-8.91,1.49-2.87,5.12-4.39,8.71-2.59,1.75.88,2.69,2.6,3.15,3.8h0Z"/>
          <path class="st32" d="M158.25,125.07c.25.65.97.97,1.62.72,1.18-.46,3.06-.91,4.86-.21,3.69,1.43,4.99,5.09,3.87,8.08-1.1,2.95-4.28,4.65-6.69,5.69-3.28,1.41-7.72,2.36-10.18,2.63-1.46-2-3.73-5.93-4.89-9.31-.85-2.49-1.73-5.98-.28-8.78,1.47-2.83,5.05-4.33,8.59-2.55,1.73.87,2.65,2.56,3.11,3.74h0Z"/>
          <path class="st25" d="M158.17,125.28c.25.64.96.95,1.6.71,1.17-.45,3.01-.9,4.79-.21,3.64,1.41,4.91,5.02,3.82,7.96-1.09,2.91-4.21,4.58-6.6,5.6-3.24,1.39-7.61,2.33-10.04,2.59-1.44-1.97-3.68-5.84-4.82-9.18-.84-2.45-1.7-5.89-.27-8.65,1.44-2.79,4.97-4.27,8.46-2.52,1.7.86,2.61,2.52,3.06,3.69h0Z"/>
          <path class="st19" d="M158.09,125.49c.24.63.94.94,1.57.7,1.15-.44,2.97-.88,4.72-.2,3.59,1.39,4.84,4.94,3.76,7.84-1.07,2.87-4.15,4.51-6.5,5.52-3.19,1.37-7.5,2.29-9.89,2.55-1.42-1.94-3.62-5.76-4.75-9.04-.83-2.42-1.68-5.81-.27-8.52,1.42-2.75,4.9-4.2,8.34-2.48,1.68.84,2.57,2.48,3.02,3.63Z"/>
          <path class="st36" d="M158.01,125.7c.24.62.93.93,1.55.69,1.13-.44,2.92-.87,4.65-.2,3.53,1.37,4.77,4.87,3.7,7.73-1.05,2.82-4.09,4.45-6.4,5.44-3.14,1.35-7.38,2.26-9.74,2.51-1.39-1.92-3.57-5.67-4.68-8.91-.82-2.38-1.65-5.72-.27-8.4,1.4-2.71,4.83-4.14,8.21-2.44,1.65.83,2.53,2.45,2.97,3.58h0Z"/>
          <path class="st0" d="M157.93,125.91c.24.61.91.91,1.53.68,1.11-.43,2.88-.86,4.58-.2,3.48,1.35,4.7,4.79,3.65,7.61-1.04,2.78-4.03,4.38-6.3,5.36-3.09,1.33-7.27,2.22-9.59,2.47-1.37-1.89-3.51-5.58-4.61-8.77-.8-2.34-1.63-5.63-.26-8.27,1.38-2.67,4.75-4.08,8.09-2.4,1.63.82,2.5,2.41,2.93,3.53h-.02Z"/>
          <path class="st10" d="M157.85,126.12c.23.6.9.9,1.5.67,1.1-.42,2.83-.84,4.51-.2,3.43,1.33,4.62,4.72,3.59,7.49-1.02,2.74-3.97,4.31-6.21,5.27-3.05,1.31-7.16,2.19-9.44,2.44-1.35-1.86-3.46-5.5-4.53-8.63-.79-2.31-1.6-5.55-.26-8.14,1.36-2.63,4.68-4.02,7.96-2.37,1.6.8,2.46,2.37,2.88,3.47Z"/>
        </g>
        <path class="st16" d="M152.23,115.16c-2.68-.51-5.62.74-7.09,4.9-1.83,5.17,1.22,11.51,2.12,13.09s-.37-.9-.67-6.58c-.3-5.68,2.75-7.88,5.31-8.53s2.04-2.56.33-2.88Z"/>
      </g>
      <g>
        <g>
          <path class="st5" d="M46.9,206.68c.93.24,1.86-.32,2.1-1.25.43-1.69,1.41-4.16,3.63-5.63,4.55-3.01,9.7-1.55,12.17,2.08,2.44,3.59,1.82,8.51,1.07,12.05-1.03,4.82-3.49,10.56-5.16,13.54-3.41.04-9.64-.53-14.36-1.92-3.48-1.02-8.1-2.82-10.09-6.68-2.02-3.9-.85-9.12,3.97-11.69,2.35-1.25,4.99-.94,6.68-.51h-.01Z"/>
          <path class="st28" d="M47.03,206.87c.92.23,1.84-.32,2.08-1.24.42-1.68,1.4-4.12,3.59-5.57,4.5-2.98,9.59-1.54,12.04,2.06,2.42,3.55,1.8,8.42,1.05,11.93-1.02,4.77-3.46,10.45-5.1,13.4-3.38.04-9.54-.52-14.21-1.9-3.44-1.01-8.01-2.79-9.99-6.61-2-3.86-.84-9.03,3.93-11.57,2.33-1.24,4.94-.93,6.61-.51h0Z"/>
          <path class="st37" d="M47.15,207.06c.91.23,1.82-.31,2.05-1.22.42-1.66,1.38-4.07,3.56-5.51,4.45-2.95,9.49-1.52,11.91,2.03,2.39,3.51,1.78,8.33,1.04,11.8-1.01,4.72-3.42,10.34-5.05,13.26-3.34.04-9.44-.51-14.06-1.88-3.4-1-7.93-2.76-9.88-6.54-1.97-3.82-.83-8.93,3.88-11.44,2.3-1.23,4.88-.92,6.54-.5h.01Z"/>
          <path class="st3" d="M47.28,207.24c.9.23,1.8-.31,2.03-1.21.42-1.64,1.37-4.03,3.52-5.45,4.41-2.92,9.39-1.51,11.78,2.01,2.37,3.48,1.76,8.24,1.03,11.67-1,4.66-3.38,10.23-4.99,13.11-3.3.04-9.33-.51-13.91-1.85-3.37-.99-7.84-2.73-9.77-6.47-1.95-3.78-.82-8.84,3.84-11.32,2.28-1.21,4.83-.91,6.47-.5h0Z"/>
          <path class="st27" d="M47.41,207.43c.89.23,1.78-.31,2.01-1.2.41-1.62,1.35-3.98,3.48-5.39,4.36-2.89,9.29-1.49,11.65,1.99,2.34,3.44,1.75,8.15,1.02,11.55-.99,4.61-3.34,10.12-4.94,12.97-3.27.04-9.23-.5-13.76-1.83-3.33-.98-7.76-2.7-9.67-6.4-1.93-3.74-.81-8.74,3.8-11.2,2.25-1.2,4.78-.9,6.4-.49h.01Z"/>
          <path class="st20" d="M47.53,207.62c.88.22,1.76-.3,1.99-1.18.41-1.61,1.34-3.94,3.44-5.33,4.31-2.86,9.18-1.47,11.53,1.97,2.31,3.4,1.73,8.06,1.01,11.42-.97,4.56-3.31,10.01-4.88,12.83-3.23.04-9.13-.5-13.61-1.81-3.29-.97-7.67-2.67-9.56-6.33-1.91-3.7-.8-8.64,3.76-11.07,2.23-1.19,4.72-.89,6.33-.49h0Z"/>
          <path class="st7" d="M47.66,207.8c.87.22,1.74-.3,1.96-1.17.4-1.59,1.32-3.9,3.4-5.28,4.26-2.82,9.08-1.46,11.4,1.95,2.29,3.36,1.71,7.97,1,11.29-.96,4.51-3.27,9.9-4.83,12.69-3.2.04-9.03-.49-13.46-1.79-3.26-.96-7.59-2.64-9.45-6.25-1.89-3.66-.8-8.55,3.72-10.95,2.2-1.17,4.67-.88,6.26-.48h0Z"/>
          <path class="st2" d="M47.79,207.99c.86.22,1.72-.3,1.94-1.16.4-1.57,1.31-3.85,3.36-5.22,4.21-2.79,8.98-1.44,11.27,1.92,2.26,3.32,1.69,7.88.99,11.16-.95,4.46-3.23,9.78-4.78,12.54-3.16.04-8.93-.49-13.3-1.77-3.22-.95-7.5-2.61-9.35-6.18-1.87-3.62-.79-8.45,3.67-10.83,2.18-1.16,4.62-.87,6.19-.47h.01Z"/>
          <path class="st33" d="M47.91,208.18c.85.22,1.71-.29,1.92-1.14.39-1.55,1.29-3.81,3.33-5.16,4.17-2.76,8.88-1.42,11.14,1.9,2.24,3.29,1.67,7.79.98,11.04-.94,4.41-3.2,9.67-4.72,12.4-3.12.04-8.83-.48-13.15-1.75-3.18-.94-7.42-2.58-9.24-6.11-1.85-3.57-.78-8.35,3.63-10.7,2.15-1.15,4.57-.86,6.12-.47h0Z"/>
          <path class="st30" d="M48.04,208.36c.84.21,1.69-.29,1.9-1.13.39-1.53,1.28-3.77,3.29-5.1,4.12-2.73,8.77-1.41,11.01,1.88,2.21,3.25,1.65,7.7.96,10.91-.93,4.36-3.16,9.56-4.67,12.26-3.09.04-8.72-.48-13-1.73-3.15-.93-7.33-2.55-9.13-6.04-1.83-3.53-.77-8.26,3.59-10.58,2.13-1.13,4.51-.85,6.05-.46h0Z"/>
          <path class="st6" d="M48.16,208.55c.83.21,1.67-.29,1.88-1.12.38-1.52,1.26-3.72,3.25-5.04,4.07-2.7,8.67-1.39,10.88,1.86,2.19,3.21,1.63,7.61.95,10.78-.92,4.31-3.12,9.45-4.61,12.11-3.05.04-8.62-.47-12.85-1.71-3.11-.91-7.25-2.52-9.03-5.97-1.8-3.49-.76-8.16,3.55-10.46,2.1-1.12,4.46-.84,5.98-.46h0Z"/>
          <path class="st8" d="M48.29,208.74c.82.21,1.65-.28,1.85-1.1.38-1.5,1.25-3.68,3.21-4.98,4.02-2.67,8.57-1.37,10.76,1.84,2.16,3.17,1.61,7.52.94,10.66-.91,4.26-3.09,9.34-4.56,11.97-3.02.04-8.52-.46-12.7-1.69-3.07-.9-7.16-2.49-8.92-5.9-1.78-3.45-.75-8.07,3.51-10.33,2.08-1.11,4.41-.83,5.91-.45v-.02Z"/>
          <path class="st1" d="M48.42,208.92c.81.21,1.63-.28,1.83-1.09.37-1.48,1.23-3.63,3.17-4.92,3.97-2.63,8.47-1.36,10.63,1.81,2.13,3.14,1.59,7.43.93,10.53-.9,4.21-3.05,9.23-4.5,11.83-2.98.04-8.42-.46-12.55-1.67-3.04-.89-7.07-2.46-8.81-5.83-1.76-3.41-.74-7.97,3.47-10.21,2.05-1.09,4.36-.82,5.84-.45h0Z"/>
          <path class="st9" d="M48.54,209.11c.8.2,1.61-.28,1.81-1.08.37-1.46,1.22-3.59,3.13-4.86,3.93-2.6,8.37-1.34,10.5,1.79,2.11,3.1,1.57,7.34.92,10.4-.89,4.16-3.01,9.11-4.45,11.69-2.94.04-8.32-.45-12.39-1.65-3-.88-6.99-2.43-8.71-5.76-1.74-3.37-.73-7.87,3.42-10.09,2.03-1.08,4.3-.81,5.77-.44Z"/>
          <path class="st23" d="M48.67,209.3c.79.2,1.59-.27,1.79-1.06.37-1.44,1.2-3.55,3.1-4.8,3.88-2.57,8.26-1.33,10.37,1.77,2.08,3.06,1.55,7.25.91,10.27-.88,4.11-2.98,9-4.39,11.54-2.91.04-8.22-.45-12.24-1.63-2.96-.87-6.9-2.4-8.6-5.69-1.72-3.33-.72-7.78,3.38-9.96,2-1.07,4.25-.8,5.7-.44h-.02Z"/>
          <path class="st31" d="M48.8,209.48c.78.2,1.57-.27,1.77-1.05.36-1.43,1.19-3.5,3.06-4.74,3.83-2.54,8.16-1.31,10.24,1.75,2.06,3.02,1.53,7.16.9,10.15-.87,4.06-2.94,8.89-4.34,11.4-2.87.04-8.11-.44-12.09-1.61-2.93-.86-6.82-2.37-8.5-5.62-1.7-3.29-.72-7.68,3.34-9.84,1.98-1.05,4.2-.79,5.63-.43h-.01Z"/>
          <path class="st24" d="M48.92,209.67c.77.2,1.55-.27,1.74-1.04.36-1.41,1.17-3.46,3.02-4.68,3.78-2.51,8.06-1.29,10.11,1.73,2.03,2.98,1.51,7.07.89,10.02-.86,4-2.9,8.78-4.29,11.26-2.84.04-8.01-.44-11.94-1.59-2.89-.85-6.73-2.34-8.39-5.55-1.68-3.24-.71-7.58,3.3-9.72,1.95-1.04,4.15-.78,5.55-.43h0Z"/>
          <path class="st4" d="M49.05,209.86c.76.19,1.53-.26,1.72-1.03.35-1.39,1.16-3.41,2.98-4.62,3.73-2.47,7.96-1.28,9.99,1.7,2.01,2.95,1.5,6.98.87,9.89-.84,3.95-2.87,8.67-4.23,11.11-2.8.04-7.91-.43-11.79-1.57-2.85-.84-6.65-2.31-8.28-5.48-1.66-3.2-.7-7.49,3.26-9.59,1.93-1.03,4.09-.77,5.48-.42h0Z"/>
          <path class="st21" d="M49.17,210.04c.75.19,1.51-.26,1.7-1.01.35-1.37,1.14-3.37,2.94-4.56,3.69-2.44,7.85-1.26,9.86,1.68,1.98,2.91,1.48,6.89.86,9.77-.83,3.9-2.83,8.56-4.18,10.97-2.76.04-7.81-.43-11.64-1.55-2.82-.83-6.56-2.28-8.18-5.41-1.63-3.16-.69-7.39,3.21-9.47,1.91-1.01,4.04-.76,5.41-.42h.02Z"/>
          <path class="st18" d="M49.3,210.23c.74.19,1.49-.26,1.68-1,.34-1.36,1.13-3.33,2.9-4.5,3.64-2.41,7.75-1.24,9.73,1.66,1.95,2.87,1.46,6.8.85,9.64-.82,3.85-2.79,8.45-4.12,10.83-2.73.04-7.71-.42-11.49-1.53-2.78-.82-6.48-2.25-8.07-5.34-1.61-3.12-.68-7.3,3.17-9.35,1.88-1,3.99-.75,5.34-.41h.01Z"/>
          <path class="st26" d="M49.43,210.42c.73.19,1.47-.25,1.66-.99.34-1.34,1.11-3.28,2.87-4.44,3.59-2.38,7.65-1.23,9.6,1.64,1.93,2.83,1.44,6.71.84,9.51-.81,3.8-2.76,8.34-4.07,10.69-2.69.04-7.61-.42-11.33-1.51-2.74-.81-6.39-2.22-7.96-5.27-1.59-3.08-.67-7.2,3.13-9.22,1.86-.99,3.94-.74,5.27-.4h0Z"/>
          <path class="st34" d="M49.55,210.6c.72.18,1.45-.25,1.63-.97.33-1.32,1.1-3.24,2.83-4.38,3.54-2.35,7.55-1.21,9.47,1.62,1.9,2.79,1.42,6.62.83,9.38-.8,3.75-2.72,8.22-4.01,10.54-2.66.03-7.5-.41-11.18-1.49-2.71-.8-6.31-2.19-7.86-5.2-1.57-3.04-.66-7.1,3.09-9.1,1.83-.97,3.88-.73,5.2-.4h0Z"/>
          <path class="st35" d="M49.68,210.79c.71.18,1.43-.25,1.61-.96.33-1.3,1.08-3.19,2.79-4.32,3.49-2.32,7.45-1.19,9.34,1.6,1.88,2.76,1.4,6.54.82,9.26-.79,3.7-2.68,8.11-3.96,10.4-2.62.03-7.4-.4-11.03-1.47-2.67-.78-6.22-2.17-7.75-5.13-1.55-3-.65-7.01,3.05-8.98,1.81-.96,3.83-.72,5.13-.39h0Z"/>
          <path class="st22" d="M49.81,210.98c.7.18,1.41-.24,1.59-.95.32-1.28,1.07-3.15,2.75-4.27,3.45-2.28,7.34-1.18,9.22,1.57,1.85,2.72,1.38,6.45.81,9.13-.78,3.65-2.65,8-3.91,10.26-2.58.03-7.3-.4-10.88-1.45-2.63-.77-6.13-2.14-7.64-5.06-1.53-2.96-.64-6.91,3-8.85,1.78-.95,3.78-.71,5.06-.39h0Z"/>
          <path class="st11" d="M49.93,211.16c.69.18,1.39-.24,1.57-.93.32-1.27,1.05-3.11,2.71-4.21,3.4-2.25,7.24-1.16,9.09,1.55,1.83,2.68,1.36,6.36.8,9-.77,3.6-2.61,7.89-3.85,10.11-2.55.03-7.2-.39-10.73-1.43-2.6-.76-6.05-2.11-7.54-4.99-1.51-2.92-.63-6.81,2.96-8.73,1.76-.93,3.73-.7,4.99-.38h0Z"/>
          <path class="st29" d="M50.06,211.35c.68.17,1.37-.24,1.54-.92.32-1.25,1.04-3.06,2.67-4.15,3.35-2.22,7.14-1.14,8.96,1.53,1.8,2.64,1.34,6.27.78,8.88-.76,3.55-2.57,7.78-3.8,9.97-2.51.03-7.1-.39-10.58-1.41-2.56-.75-5.96-2.08-7.43-4.92-1.49-2.87-.63-6.72,2.92-8.61,1.73-.92,3.67-.69,4.92-.38h.02Z"/>
          <path class="st32" d="M50.18,211.54c.67.17,1.35-.23,1.52-.91.31-1.23,1.03-3.02,2.64-4.09,3.3-2.19,7.04-1.13,8.83,1.51,1.77,2.61,1.32,6.18.77,8.75-.75,3.5-2.53,7.67-3.74,9.83-2.48.03-7-.38-10.42-1.39-2.52-.74-5.88-2.05-7.32-4.85-1.46-2.83-.62-6.62,2.88-8.48,1.71-.91,3.62-.68,4.85-.37h0Z"/>
          <path class="st25" d="M50.31,211.72c.66.17,1.33-.23,1.5-.89.31-1.21,1.01-2.98,2.6-4.03,3.25-2.16,6.93-1.11,8.7,1.49,1.75,2.57,1.3,6.09.76,8.62-.74,3.45-2.5,7.56-3.69,9.69-2.44.03-6.89-.38-10.27-1.37-2.49-.73-5.79-2.02-7.22-4.78-1.44-2.79-.61-6.53,2.84-8.36,1.68-.9,3.57-.67,4.78-.37h0Z"/>
          <path class="st19" d="M50.44,211.91c.65.17,1.31-.23,1.48-.88.3-1.19,1-2.93,2.56-3.97,3.21-2.12,6.83-1.1,8.57,1.46,1.72,2.53,1.28,6,.75,8.49-.73,3.39-2.46,7.44-3.63,9.54-2.4.03-6.79-.37-10.12-1.35-2.45-.72-5.71-1.99-7.11-4.71-1.42-2.75-.6-6.43,2.8-8.24,1.66-.88,3.51-.66,4.71-.36v.02Z"/>
          <path class="st36" d="M50.56,212.1c.64.16,1.29-.22,1.46-.87.3-1.18.98-2.89,2.52-3.91,3.16-2.09,6.73-1.08,8.45,1.44,1.7,2.49,1.26,5.91.74,8.37-.71,3.34-2.42,7.33-3.58,9.4-2.37.03-6.69-.36-9.97-1.33-2.41-.71-5.62-1.96-7-4.63-1.4-2.71-.59-6.33,2.75-8.11,1.63-.87,3.46-.65,4.64-.36h0Z"/>
          <path class="st0" d="M50.69,212.28c.63.16,1.27-.22,1.43-.85.29-1.16.97-2.84,2.48-3.85,3.11-2.06,6.63-1.06,8.32,1.42,1.67,2.45,1.25,5.82.73,8.24-.7,3.29-2.39,7.22-3.52,9.26-2.33.03-6.59-.36-9.82-1.31-2.38-.7-5.54-1.93-6.9-4.56-1.38-2.67-.58-6.24,2.71-7.99,1.61-.86,3.41-.64,4.57-.35h0Z"/>
          <path class="st10" d="M50.82,212.47c.62.16,1.25-.22,1.41-.84.29-1.14.95-2.8,2.44-3.79,3.06-2.03,6.52-1.05,8.19,1.4,1.64,2.42,1.23,5.73.72,8.11-.69,3.24-2.35,7.11-3.47,9.11-2.3.03-6.49-.35-9.67-1.29-2.34-.69-5.45-1.9-6.79-4.49-1.36-2.63-.57-6.14,2.67-7.87,1.58-.84,3.36-.63,4.5-.34h0Z"/>
        </g>
        <path class="st14" d="M38.62,210.72c-1.96,1.89-2.64,5.02-.1,8.62,3.16,4.48,10.1,5.66,11.91,5.83s-.95-.22-5.76-3.26c-4.81-3.03-4.84-6.8-3.9-9.26s-.91-3.14-2.16-1.93h.01Z"/>
      </g>
      <g>
        <g>
          <path class="st5" d="M122.29,170.05c2.31,1.52,5.38.89,6.89-1.42,2.77-4.21,7.78-10,15.22-11.91,15.24-3.92,27.88,4.92,31.18,17.15,3.27,12.09-3.07,24.9-8.48,33.84-7.35,12.15-19.49,25.48-26.84,32.02-9.34-3.1-25.76-10.54-37.32-18.79-8.51-6.07-19.4-15.33-21.18-27.72-1.81-12.54,6.31-25.66,21.85-28.09,7.59-1.19,14.48,2.14,18.69,4.92h-.01Z"/>
          <path class="st28" d="M122.46,170.68c2.28,1.5,5.32.88,6.82-1.41,2.74-4.17,7.7-9.89,15.06-11.78,15.08-3.87,27.59,4.87,30.85,16.97,3.23,11.96-3.04,24.64-8.4,33.49-7.28,12.02-19.29,25.21-26.56,31.69-9.24-3.07-25.49-10.43-36.93-18.59-8.42-6-19.2-15.17-20.96-27.43-1.79-12.41,6.24-25.39,21.62-27.8,7.51-1.18,14.33,2.12,18.49,4.86h0Z"/>
          <path class="st37" d="M122.63,171.31c2.26,1.49,5.26.87,6.75-1.39,2.71-4.12,7.61-9.79,14.89-11.66,14.92-3.83,27.29,4.82,30.53,16.79,3.2,11.83-3.01,24.38-8.31,33.13-7.2,11.89-19.08,24.94-26.27,31.35-9.14-3.04-25.22-10.32-36.53-18.39-8.33-5.94-18.99-15.01-20.74-27.14-1.77-12.28,6.17-25.12,21.39-27.5,7.43-1.16,14.17,2.1,18.29,4.81Z"/>
          <path class="st3" d="M122.79,171.94c2.23,1.47,5.21.86,6.68-1.38,2.68-4.08,7.53-9.68,14.73-11.53,14.76-3.79,27,4.77,30.2,16.61,3.16,11.7-2.98,24.12-8.22,32.77-7.12,11.77-18.88,24.67-25.99,31.01-9.04-3-24.94-10.2-36.14-18.19-8.24-5.88-18.79-14.85-20.51-26.85-1.75-12.14,6.11-24.85,21.16-27.2,7.35-1.15,14.02,2.08,18.1,4.76h0Z"/>
          <path class="st27" d="M122.96,172.56c2.21,1.45,5.15.85,6.6-1.36,2.65-4.03,7.45-9.58,14.57-11.41,14.6-3.75,26.7,4.72,29.87,16.43,3.13,11.58-2.95,23.85-8.13,32.42-7.04,11.64-18.67,24.4-25.71,30.67-8.95-2.97-24.67-10.09-35.75-17.99-8.15-5.81-18.58-14.69-20.29-26.55-1.73-12.01,6.04-24.58,20.93-26.91,7.27-1.14,13.87,2.05,17.9,4.71h0Z"/>
          <path class="st20" d="M123.13,173.19c2.18,1.44,5.09.84,6.53-1.35,2.62-3.99,7.37-9.47,14.41-11.28,14.44-3.71,26.41,4.66,29.54,16.25,3.09,11.45-2.91,23.59-8.04,32.06-6.97,11.51-18.46,24.13-25.43,30.33-8.85-2.94-24.4-9.98-35.35-17.8-8.06-5.75-18.38-14.52-20.07-26.26-1.71-11.88,5.97-24.31,20.7-26.61,7.19-1.13,13.71,2.03,17.7,4.66h0Z"/>
          <path class="st7" d="M123.3,173.82c2.16,1.42,5.04.83,6.46-1.33,2.59-3.95,7.29-9.37,14.25-11.16,14.28-3.67,26.12,4.61,29.21,16.07,3.06,11.32-2.88,23.33-7.95,31.7-6.89,11.38-18.26,23.87-25.14,30-8.75-2.91-24.13-9.87-34.96-17.6-7.97-5.68-18.17-14.36-19.84-25.97-1.69-11.75,5.91-24.04,20.47-26.32,7.11-1.11,13.56,2.01,17.51,4.61h-.01Z"/>
          <path class="st2" d="M123.46,174.45c2.14,1.41,4.98.82,6.38-1.32,2.57-3.9,7.2-9.26,14.09-11.03,14.12-3.63,25.82,4.56,28.88,15.89,3.03,11.19-2.85,23.07-7.86,31.34-6.81,11.25-18.05,23.6-24.86,29.66-8.65-2.87-23.86-9.76-34.57-17.4-7.88-5.62-17.97-14.2-19.62-25.68-1.67-11.61,5.84-23.76,20.24-26.02,7.03-1.1,13.41,1.99,17.31,4.55h.01Z"/>
          <path class="st33" d="M123.63,175.08c2.11,1.39,4.92.81,6.31-1.3,2.54-3.86,7.12-9.15,13.93-10.9,13.95-3.59,25.53,4.51,28.55,15.71,2.99,11.07-2.82,22.8-7.77,30.99-6.73,11.13-17.85,23.33-24.58,29.32-8.55-2.84-23.59-9.65-34.17-17.2-7.79-5.56-17.76-14.04-19.4-25.38-1.65-11.48,5.77-23.49,20.01-25.72,6.95-1.09,13.26,1.96,17.11,4.5v-.02Z"/>
          <path class="st30" d="M123.8,175.7c2.09,1.37,4.87.8,6.24-1.29,2.51-3.81,7.04-9.05,13.77-10.78,13.79-3.54,25.23,4.46,28.22,15.53,2.96,10.94-2.78,22.54-7.68,30.63-6.66,11-17.64,23.06-24.29,28.98-8.45-2.81-23.31-9.54-33.78-17-7.7-5.49-17.56-13.88-19.17-25.09-1.64-11.35,5.71-23.22,19.77-25.43,6.87-1.08,13.1,1.94,16.91,4.45h0Z"/>
          <path class="st6" d="M123.97,176.33c2.06,1.36,4.81.79,6.17-1.27,2.48-3.77,6.96-8.94,13.61-10.65,13.63-3.5,24.94,4.4,27.89,15.34,2.92,10.81-2.75,22.28-7.59,30.27-6.58,10.87-17.44,22.79-24.01,28.65-8.35-2.77-23.04-9.43-33.38-16.81-7.61-5.43-17.35-13.71-18.95-24.8-1.62-11.22,5.64-22.95,19.54-25.13,6.79-1.06,12.95,1.92,16.72,4.4h0Z"/>
          <path class="st8" d="M124.13,176.96c2.04,1.34,4.75.78,6.09-1.26,2.45-3.72,6.88-8.84,13.45-10.53,13.47-3.46,24.64,4.35,27.57,15.16,2.89,10.68-2.72,22.01-7.5,29.92-6.5,10.74-17.23,22.52-23.73,28.31-8.26-2.74-22.77-9.32-32.99-16.61-7.52-5.36-17.15-13.55-18.73-24.51-1.6-11.08,5.57-22.68,19.31-24.83,6.71-1.05,12.8,1.9,16.52,4.35h.01Z"/>
          <path class="st1" d="M124.3,177.59c2.01,1.33,4.7.77,6.02-1.24,2.42-3.68,6.79-8.73,13.29-10.4,13.31-3.42,24.35,4.3,27.24,14.98,2.85,10.56-2.69,21.75-7.41,29.56-6.42,10.61-17.03,22.25-23.44,27.97-8.16-2.71-22.5-9.2-32.6-16.41-7.43-5.3-16.95-13.39-18.5-24.21-1.58-10.95,5.51-22.41,19.08-24.54,6.63-1.04,12.65,1.87,16.32,4.29h0Z"/>
          <path class="st9" d="M124.47,178.22c1.99,1.31,4.64.76,5.95-1.23,2.39-3.63,6.71-8.63,13.13-10.28,13.15-3.38,24.06,4.25,26.91,14.8,2.82,10.43-2.65,21.49-7.32,29.2-6.35,10.48-16.82,21.98-23.16,27.63-8.06-2.68-22.23-9.09-32.2-16.21-7.34-5.24-16.74-13.23-18.28-23.92-1.56-10.82,5.44-22.14,18.85-24.24,6.55-1.03,12.49,1.85,16.13,4.24h0Z"/>
          <path class="st23" d="M124.64,178.85c1.97,1.29,4.58.75,5.88-1.21,2.36-3.59,6.63-8.52,12.97-10.15,12.99-3.34,23.76,4.2,26.58,14.62,2.78,10.3-2.62,21.23-7.23,28.85-6.27,10.36-16.61,21.72-22.88,27.29-7.96-2.64-21.96-8.98-31.81-16.01-7.25-5.17-16.54-13.07-18.06-23.63-1.54-10.69,5.37-21.87,18.62-23.94,6.47-1.01,12.34,1.83,15.93,4.19h0Z"/>
          <path class="st31" d="M124.8,179.47c1.94,1.28,4.53.74,5.8-1.2,2.33-3.55,6.55-8.42,12.81-10.03,12.83-3.3,23.47,4.14,26.25,14.44,2.75,10.17-2.59,20.96-7.14,28.49-6.19,10.23-16.41,21.45-22.59,26.96-7.86-2.61-21.68-8.87-31.42-15.82-7.16-5.11-16.33-12.91-17.83-23.34-1.52-10.56,5.31-21.6,18.39-23.65,6.39-1,12.19,1.81,15.73,4.14h0Z"/>
          <path class="st24" d="M124.97,180.1c1.92,1.26,4.47.74,5.73-1.18,2.3-3.5,6.47-8.31,12.65-9.9,12.67-3.25,23.17,4.09,25.92,14.26,2.72,10.05-2.56,20.7-7.05,28.13-6.11,10.1-16.2,21.18-22.31,26.62-7.76-2.58-21.41-8.76-31.02-15.62-7.07-5.04-16.13-12.74-17.61-23.04-1.5-10.42,5.24-21.33,18.16-23.35,6.31-.99,12.03,1.78,15.53,4.09h0Z"/>
          <path class="st4" d="M125.14,180.73c1.89,1.25,4.41.73,5.66-1.17,2.27-3.46,6.38-8.21,12.49-9.77,12.51-3.21,22.88,4.04,25.59,14.08,2.68,9.92-2.52,20.44-6.96,27.77-6.04,9.97-16,20.91-22.03,26.28-7.66-2.55-21.14-8.65-30.63-15.42-6.98-4.98-15.92-12.58-17.39-22.75-1.48-10.29,5.18-21.06,17.93-23.06,6.23-.98,11.88,1.76,15.34,4.04Z"/>
          <path class="st21" d="M125.31,181.36c1.87,1.23,4.36.72,5.59-1.15,2.24-3.41,6.3-8.1,12.33-9.65,12.35-3.17,22.59,3.99,25.26,13.9,2.65,9.79-2.49,20.18-6.87,27.42-5.96,9.84-15.79,20.64-21.74,25.94-7.57-2.51-20.87-8.54-30.24-15.22-6.89-4.92-15.72-12.42-17.16-22.46-1.46-10.16,5.11-20.79,17.7-22.76,6.15-.96,11.73,1.74,15.14,3.98h0Z"/>
          <path class="st18" d="M125.47,181.99c1.84,1.21,4.3.71,5.51-1.14,2.21-3.37,6.22-7.99,12.17-9.52,12.19-3.13,22.29,3.94,24.93,13.72,2.61,9.66-2.46,19.91-6.78,27.06-5.88,9.72-15.59,20.37-21.46,25.6-7.47-2.48-20.6-8.43-29.84-15.02-6.8-4.85-15.51-12.26-16.94-22.17-1.44-10.03,5.04-20.52,17.47-22.46,6.07-.95,11.58,1.72,14.94,3.93h0Z"/>
          <path class="st26" d="M125.64,182.61c1.82,1.2,4.24.7,5.44-1.12,2.19-3.32,6.14-7.89,12.01-9.4,12.03-3.09,22,3.88,24.61,13.54,2.58,9.54-2.43,19.65-6.69,26.7-5.8,9.59-15.38,20.1-21.18,25.27-7.37-2.45-20.33-8.31-29.45-14.82-6.71-4.79-15.31-12.1-16.72-21.88-1.43-9.89,4.98-20.25,17.24-22.17,5.99-.94,11.42,1.69,14.75,3.88h0Z"/>
          <path class="st34" d="M125.81,183.24c1.8,1.18,4.19.69,5.37-1.11,2.16-3.28,6.06-7.78,11.85-9.27,11.86-3.05,21.7,3.83,24.28,13.35,2.54,9.41-2.39,19.39-6.61,26.35-5.73,9.46-15.17,19.83-20.9,24.93-7.27-2.41-20.05-8.2-29.05-14.63-6.62-4.72-15.1-11.94-16.49-21.58-1.41-9.76,4.91-19.98,17.01-21.87,5.91-.92,11.27,1.67,14.55,3.83h-.01Z"/>
          <path class="st35" d="M125.98,183.87c1.77,1.17,4.13.68,5.29-1.09,2.13-3.23,5.97-7.68,11.68-9.15,11.7-3.01,21.41,3.78,23.95,13.17,2.51,9.28-2.36,19.13-6.52,25.99-5.65,9.33-14.97,19.57-20.61,24.59-7.17-2.38-19.78-8.09-28.66-14.43-6.53-4.66-14.9-11.77-16.27-21.29-1.39-9.63,4.84-19.7,16.78-21.57,5.83-.91,11.12,1.65,14.35,3.78h.01Z"/>
          <path class="st22" d="M126.14,184.5c1.75,1.15,4.07.67,5.22-1.08,2.1-3.19,5.89-7.57,11.52-9.02,11.54-2.97,21.12,3.73,23.62,12.99,2.47,9.15-2.33,18.86-6.43,25.63-5.57,9.2-14.76,19.3-20.33,24.25-7.07-2.35-19.51-7.98-28.27-14.23-6.44-4.6-14.69-11.61-16.05-21-1.37-9.5,4.78-19.43,16.55-21.28,5.75-.9,10.97,1.62,14.15,3.72l.02.02Z"/>
          <path class="st11" d="M126.31,185.13c1.72,1.13,4.02.66,5.15-1.06,2.07-3.15,5.81-7.47,11.36-8.9,11.38-2.92,20.82,3.68,23.29,12.81,2.44,9.03-2.3,18.6-6.34,25.28-5.49,9.07-14.56,19.03-20.05,23.92-6.97-2.32-19.24-7.87-27.87-14.03-6.35-4.53-14.49-11.45-15.82-20.71-1.35-9.37,4.71-19.16,16.32-20.98,5.67-.89,10.81,1.6,13.96,3.67h0Z"/>
          <path class="st29" d="M126.48,185.75c1.7,1.12,3.96.65,5.08-1.05,2.04-3.1,5.73-7.36,11.2-8.77,11.22-2.88,20.53,3.62,22.96,12.63,2.41,8.9-2.26,18.34-6.25,24.92-5.41,8.95-14.35,18.76-19.76,23.58-6.88-2.28-18.97-7.76-27.48-13.83-6.26-4.47-14.29-11.29-15.6-20.41-1.33-9.23,4.64-18.89,16.09-20.69,5.59-.87,10.66,1.58,13.76,3.62h0Z"/>
          <path class="st32" d="M126.65,186.38c1.67,1.1,3.9.64,5-1.03,2.01-3.06,5.64-7.26,11.04-8.64,11.06-2.84,20.23,3.57,22.63,12.45,2.37,8.77-2.23,18.07-6.16,24.56-5.34,8.82-14.15,18.49-19.48,23.24-6.78-2.25-18.7-7.65-27.09-13.64-6.17-4.4-14.08-11.13-15.37-20.12-1.31-9.1,4.58-18.62,15.86-20.39,5.51-.86,10.51,1.56,13.56,3.57h.01Z"/>
          <path class="st25" d="M126.81,187.01c1.65,1.09,3.85.63,4.93-1.02,1.98-3.01,5.56-7.15,10.88-8.52,10.9-2.8,19.94,3.52,22.3,12.27,2.34,8.64-2.2,17.81-6.07,24.2-5.26,8.69-13.94,18.22-19.2,22.9-6.68-2.22-18.42-7.54-26.69-13.44-6.08-4.34-13.88-10.97-15.15-19.83-1.29-8.97,4.51-18.35,15.63-20.09,5.43-.85,10.35,1.53,13.37,3.52h0Z"/>
          <path class="st19" d="M126.98,187.64c1.63,1.07,3.79.62,4.86-1,1.95-2.97,5.48-7.05,10.72-8.39,10.74-2.76,19.65,3.47,21.97,12.09,2.3,8.52-2.17,17.55-5.98,23.85-5.18,8.56-13.74,17.95-18.91,22.56-6.58-2.19-18.15-7.43-26.3-13.24-5.99-4.28-13.67-10.8-14.93-19.54-1.27-8.84,4.44-18.08,15.4-19.8,5.35-.84,10.2,1.51,13.17,3.46h0Z"/>
          <path class="st36" d="M127.15,188.27c1.6,1.05,3.73.61,4.79-.99,1.92-2.92,5.4-6.94,10.56-8.27,10.58-2.72,19.35,3.42,21.64,11.91,2.27,8.39-2.13,17.29-5.89,23.49-5.1,8.43-13.53,17.68-18.63,22.23-6.48-2.15-17.88-7.31-25.9-13.04-5.9-4.21-13.47-10.64-14.7-19.24-1.25-8.7,4.38-17.81,15.17-19.5,5.27-.82,10.05,1.49,12.97,3.41h0Z"/>
          <path class="st0" d="M127.31,188.89c1.58,1.04,3.68.6,4.71-.97,1.89-2.88,5.32-6.83,10.4-8.14,10.42-2.68,19.06,3.37,21.32,11.73,2.23,8.26-2.1,17.02-5.8,23.13-5.03,8.31-13.32,17.42-18.35,21.89-6.38-2.12-17.61-7.2-25.51-12.84-5.81-4.15-13.26-10.48-14.48-18.95-1.23-8.57,4.31-17.54,14.93-19.2,5.19-.81,9.9,1.47,12.77,3.36h.01Z"/>
          <path class="st10" d="M127.48,189.52c1.55,1.02,3.62.6,4.64-.96,1.86-2.83,5.23-6.73,10.24-8.02,10.26-2.64,18.76,3.31,20.99,11.54,2.2,8.13-2.07,16.76-5.71,22.78-4.95,8.18-13.12,17.15-18.06,21.55-6.29-2.09-17.34-7.09-25.12-12.64-5.72-4.08-13.06-10.32-14.26-18.66-1.22-8.44,4.24-17.27,14.7-18.91,5.11-.8,9.74,1.44,12.58,3.31h0Z"/>
        </g>
        <path class="st13" d="M95.92,173.24c-7.12,3.3-11.93,11.17-8.41,23.39,4.39,15.2,22.16,24.95,26.94,27.15,4.79,2.2-2.37-1.5-12.61-14.31s-6.76-23.1-1.87-28.92c4.89-5.82.48-9.42-4.06-7.31h.01Z"/>
      </g>
    </g>
  </g>
</svg>